<svg width="173" height="38" viewBox="0 0 173 38" fill="none" xmlns="http://www.w3.org/2000/svg">
<path fill-rule="evenodd" clip-rule="evenodd" d="M92.4901 26.0288C90.6101 27.9131 88.361 28.8601 85.7544 28.8601C83.6464 28.8601 81.8549 28.4356 80.0268 27.3867V23.0675C81.4973 24.0525 83.3454 24.9905 85.1675 24.9905C88.9696 24.9905 91.2328 22.4063 91.2328 18.7441C91.2328 15.0789 88.8922 12.4178 85.0883 12.4178C83.3895 12.4178 82.0124 13.021 80.9368 14.23C79.7837 15.5396 79.1877 17.4114 79.1877 19.8865V36.9417H78.9014C76.8055 36.9417 75.1075 35.2648 75.1075 33.1955V19.2462C75.1075 13.3269 78.7717 8.54745 85.0697 8.54745C88.1794 8.54745 90.7052 9.59769 92.6203 11.7076C94.4208 13.6788 95.313 16.1765 95.313 19.1822C95.313 21.8569 94.3715 24.1433 92.4901 26.0288ZM136.666 25.8842C134.793 27.87 132.383 28.8601 129.462 28.8601C126.377 28.8601 123.864 27.8098 121.951 25.7004C120.152 23.7048 119.258 21.205 119.258 18.2266C119.258 12.9541 123.379 8.54745 128.802 8.54745C130.894 8.54745 132.71 8.98384 134.544 9.97735V14.3417C133.074 13.3563 131.226 12.4183 129.404 12.4183C125.602 12.4183 123.338 15.0021 123.338 18.6656C123.338 22.2792 125.733 24.991 129.481 24.991C131.179 24.991 132.577 24.3626 133.695 23.0969C134.806 21.8398 135.384 19.9923 135.384 17.5104V3.93437C135.384 1.86458 137.083 0.18811 139.177 0.18811H139.464V18.1469C139.464 21.3096 138.537 23.8985 136.666 25.8842ZM148.188 6.63081C147.76 7.10431 147.146 7.3223 146.397 7.3223C144.996 7.3223 143.994 6.30233 143.994 4.92959C143.994 3.52485 144.978 2.57655 146.397 2.57655C147.763 2.57655 148.8 3.57646 148.8 4.92959C148.8 5.59933 148.601 6.17308 148.188 6.63081ZM168.919 17.51C168.919 15.9214 168.31 14.6638 167.088 13.7112C165.987 12.8538 164.611 12.4178 162.937 12.4178C159.245 12.4178 156.874 15.2687 156.874 18.7842C156.874 22.167 159.387 24.9905 162.899 24.9905C165.341 24.9905 166.647 23.5815 168.041 21.8261V26.8871C167.331 27.4123 166.515 27.9847 165.681 28.3209C164.802 28.6835 163.752 28.8601 162.539 28.8601C156.666 28.8601 152.794 24.0567 152.794 18.5056C152.794 15.6552 153.69 13.2987 155.495 11.461C157.41 9.51366 159.923 8.54745 162.998 8.54745C168.829 8.54745 173 11.8539 173 17.8282V28.4621H172.715C170.618 28.4621 168.919 26.7848 168.919 24.715V17.51ZM113.066 16.3684C112.55 14.7939 111.904 14.0188 110.417 13.1989C106.881 11.2481 103.401 12.9088 101.782 16.3535L113.066 16.3684ZM109.952 28.8008C107.347 29.3477 104.789 28.9258 102.294 27.5488C99.8604 26.2067 98.2307 24.2107 97.4137 21.5732C95.7624 16.2387 99.1454 10.2943 104.587 8.85501C107.285 8.14176 109.871 8.46469 112.328 9.82037C116.409 12.0736 117.896 15.5583 117.637 20.0486L101.199 20.0161C101.441 21.8475 102.591 23.2804 104.207 24.1715C105.845 25.0759 107.351 25.2917 108.748 24.8638C110.301 24.3827 111.559 23.1319 112.583 21.9673L115.933 24.378C114.567 26.7924 112.707 28.2215 109.952 28.8008ZM144.357 8.9463H148.437V28.4617H148.15C146.056 28.4617 144.357 26.7843 144.357 24.7145L144.357 8.9463ZM5.9711 28.4617C1.98042 28.4617 0 25.7814 0 22.0373V7.83633C0 5.7674 1.69886 4.08965 3.79432 4.08965H4.08064V8.94673H10.9743V12.8167H4.0802V22.4865C4.0802 24.131 4.82367 24.5925 6.41441 24.5925H10.9743V28.4625L5.9711 28.4617ZM29.6665 25.9947C27.651 27.9033 25.2282 28.8597 22.4134 28.8597C19.6251 28.8597 17.2161 27.9024 15.2006 25.9947C13.1783 24.0794 12.1701 21.6414 12.1701 18.704C12.1701 12.9724 16.6015 8.54787 22.4134 8.54787C25.2031 8.54787 27.6186 9.51195 29.6466 11.4337C31.6815 13.361 32.6983 15.7917 32.6983 18.704C32.6983 21.6414 31.6888 24.0789 29.6665 25.9947ZM48.7427 13.6421C48.1442 14.6335 47.6801 15.3442 47.3536 15.7738C46.9937 16.2409 46.6382 16.6141 46.2861 16.8718C49.1216 17.7762 50.1778 19.7163 50.1778 22.6064V28.4617H49.8915C47.796 28.4617 46.0971 26.7843 46.0971 24.7145V23.0035C46.0971 21.1321 45.2473 19.8626 43.2396 19.8626H39.5344V28.4617H39.2476C37.1526 28.4617 35.4551 26.7843 35.4551 24.7145V3.93437C35.4551 1.86458 37.1526 0.18811 39.2481 0.18811H39.5344V15.9534H40.7402C42.0654 15.9534 42.936 15.5055 43.436 14.6587L46.8631 8.94715L51.5125 8.94289L48.7427 13.6421ZM69.8046 25.9951C67.7883 27.9037 65.3655 28.8601 62.5512 28.8601C59.7633 28.8601 57.3543 27.9028 55.3379 25.9951C53.3156 24.0798 52.3074 21.6419 52.3074 18.7044C52.3074 12.9728 56.7392 8.5483 62.5512 8.5483C65.3408 8.5483 67.7559 9.51238 69.7843 11.4341C71.8196 13.3614 72.8356 15.7921 72.8356 18.7044C72.8356 21.6419 71.827 24.0794 69.8046 25.9951ZM66.8593 14.1626C65.7348 13.001 64.3067 12.4178 62.5512 12.4178C58.7966 12.4178 56.5485 15.1211 56.5485 18.7044C56.5485 22.2378 58.8498 24.9905 62.5512 24.9905C66.2534 24.9905 68.5538 22.2378 68.5538 18.7044C68.5538 16.8283 67.9829 15.3229 66.8597 14.1626H66.8593ZM26.722 14.1626C25.5975 13.001 24.1694 12.4178 22.4143 12.4178C18.6593 12.4178 16.4116 15.1211 16.4116 18.7044C16.4116 22.2378 18.7125 24.9905 22.4139 24.9905C26.1161 24.9905 28.4161 22.2378 28.4161 18.7044C28.4161 16.8283 27.8461 15.3229 26.722 14.1626Z" fill="#9F9F9F"/>
</svg>
