<svg width="115" height="39" viewBox="0 0 115 39" fill="none" xmlns="http://www.w3.org/2000/svg">
<path d="M91.1697 1.80054H95.266V29.3257H91.1697V1.80054Z" fill="#9F9F9F"/>
<path d="M38.9953 11.1705C33.8347 11.1705 29.6313 15.1094 29.6313 20.5338C29.6313 25.9245 33.8347 29.897 38.9953 29.897C44.1558 29.897 48.3592 25.9245 48.3592 20.5338C48.3592 15.1027 44.1558 11.1705 38.9953 11.1705ZM38.9953 26.2069C36.1707 26.2069 33.7343 23.8677 33.7343 20.5338C33.7343 17.1662 36.1707 14.8607 38.9953 14.8607C41.8198 14.8607 44.2562 17.1662 44.2562 20.5338C44.2562 23.8677 41.8198 26.2069 38.9953 26.2069Z" fill="#9F9F9F"/>
<path d="M14.6918 14.0407V18.0132H24.1562C23.8751 20.2448 23.1321 21.8781 22.0009 23.0141C20.6221 24.3987 18.4669 25.9246 14.6918 25.9246C8.86195 25.9246 4.3105 21.206 4.3105 15.3514C4.3105 9.49686 8.86195 4.78499 14.6918 4.78499C17.8377 4.78499 20.1335 6.0285 21.8269 7.62153L24.618 4.8186C22.2486 2.54668 19.1094 0.8125 14.6918 0.8125C6.7067 0.8125 0 7.33922 0 15.3581C0 23.3771 6.7134 29.9038 14.6918 29.9038C19.0023 29.9038 22.2486 28.4855 24.792 25.8237C27.4091 23.1956 28.219 19.5121 28.219 16.5277C28.219 15.6068 28.1454 14.7532 28.0048 14.0474H14.6918V14.0407Z" fill="#9F9F9F"/>
<path d="M106.497 26.2069C104.416 26.2069 102.93 25.2524 101.973 23.3703L114.442 18.1879L114.021 17.1259C113.244 15.0355 110.875 11.1638 106.036 11.1638C101.23 11.1638 97.2405 14.9615 97.2405 20.5271C97.2405 25.7767 101.196 29.8903 106.497 29.8903C110.774 29.8903 113.244 27.2622 114.268 25.7431L111.089 23.6123C110.031 25.1784 108.586 26.2069 106.497 26.2069ZM106.183 14.7868C107.809 14.7868 109.188 15.6001 109.643 16.7764L101.31 20.2515C101.203 16.6285 104.094 14.7868 106.183 14.7868Z" fill="#9F9F9F"/>
<path d="M84.4563 13.261H84.3157C83.3987 12.1586 81.6317 11.1705 79.4028 11.1705C74.7376 11.1705 70.4672 15.2842 70.4672 20.5741C70.4672 25.8237 74.7443 29.9038 79.4028 29.9038C81.625 29.9038 83.392 28.909 84.3157 27.773H84.4563V29.124C84.4563 32.7067 82.5487 34.6224 79.4764 34.6224C76.9664 34.6224 75.4136 32.8142 74.7777 31.2884L71.2102 32.7806C72.2343 35.2609 74.9518 38.3125 79.4764 38.3125C84.2822 38.3125 88.3451 35.476 88.3451 28.5594V11.7351H84.4563V13.261ZM79.7576 26.2069C76.933 26.2069 74.5635 23.8274 74.5635 20.5674C74.5635 17.2671 76.933 14.854 79.7576 14.854C82.5487 14.854 84.7374 17.2671 84.7374 20.5674C84.7374 23.8341 82.5487 26.2069 79.7576 26.2069Z" fill="#9F9F9F"/>
<path d="M59.4099 11.1705C54.2493 11.1705 50.0459 15.1094 50.0459 20.5338C50.0459 25.9245 54.2493 29.897 59.4099 29.897C64.5704 29.897 68.7738 25.9245 68.7738 20.5338C68.7738 15.1027 64.5704 11.1705 59.4099 11.1705ZM59.4099 26.2069C56.5853 26.2069 54.1489 23.8677 54.1489 20.5338C54.1489 17.1662 56.5853 14.8607 59.4099 14.8607C62.2345 14.8607 64.6708 17.1662 64.6708 20.5338C64.6775 23.8677 62.2411 26.2069 59.4099 26.2069Z" fill="#9F9F9F"/>
</svg>
