<svg width="143" height="31" viewBox="0 0 143 31" fill="none" xmlns="http://www.w3.org/2000/svg">
<path d="M78.1497 3.99018C79.3084 1.98069 81.6419 0.921253 83.9024 0.90112C85.9654 0.767572 88.2989 1.1114 89.7441 2.74485C89.0093 3.71525 88.3069 4.70602 87.5721 5.67642C86.7527 4.7342 86.0784 3.40789 84.7542 3.14102C83.4503 2.73657 81.8114 3.41594 81.4722 4.81496C80.9232 7.03495 81.2542 9.35582 81.1733 11.6201H85.4084V14.1475H81.1693C81.1693 17.9564 81.1693 21.7653 81.1653 25.5742C81.1492 26.6538 81.3228 27.7213 81.5247 28.7807C82.4935 29.2295 83.5392 29.4599 84.609 29.4802C84.6048 29.7431 84.6008 30.2726 84.5967 30.5394C81.1331 30.3131 77.6651 30.2444 74.2055 30.5354C74.2055 30.3131 74.2135 29.8683 74.2135 29.646C75.3074 29.4518 76.664 28.9425 76.7085 27.6242C77.1324 23.1482 76.8456 18.6396 76.9305 14.1475C76.0867 14.1475 75.2429 14.1475 74.3991 14.1434C74.4031 13.7634 74.4112 13.3793 74.4152 12.9992C75.271 12.6028 76.1068 12.1621 76.9303 11.7094C76.9303 9.11333 76.777 6.30681 78.1497 3.99018Z" fill="#9F9F9F"/>
<path d="M140.59 0.897181C138.35 1.4146 136.081 1.85126 133.78 1.95237C133.755 2.16265 133.711 2.58298 133.691 2.79325C134.546 3.05207 135.943 2.98362 136.004 4.18041C136.347 6.60665 136.105 9.06868 136.173 11.5108C132.875 10.9448 129.189 10.9811 126.384 13.0393C123.312 15.1945 122.258 19.2139 122.565 22.7964C122.738 25.5743 124.127 28.4249 126.642 29.7794C129.637 31.4292 133.469 31.0896 136.274 29.1891C136.295 29.7512 136.307 30.3131 136.311 30.8751C138.483 30.3212 140.703 30.0098 142.936 29.8805V28.9099C139.772 28.3701 140.647 26.9035 140.425 24.4097C140.429 16.5738 140.308 8.73291 140.59 0.897181ZM132.382 13.5339C133.718 13.5196 135.077 13.9471 136.173 14.6931C136.178 18.9105 136.165 23.1277 136.182 27.3449C133.832 28.4247 130.655 28.3477 128.814 26.3503C127.235 24.66 126.969 22.1855 127.11 19.9778C127.268 17.9681 127.688 15.6714 129.44 14.4258C130.318 13.8227 131.343 13.5449 132.382 13.5339Z" fill="#9F9F9F"/>
<path d="M7.41612 3.47252C10.0766 3.31079 12.7449 3.4846 15.3772 3.85661C15.2198 5.73278 15.2358 7.62124 15.3812 9.49741C15.1268 9.49741 14.6183 9.50143 14.3639 9.50143C14.162 8.3288 13.9521 6.90541 12.7047 6.38374C10.8556 5.60348 8.69164 5.52653 6.77423 6.08465C4.2672 6.82845 3.85536 10.5242 5.7205 12.1377C8.05399 14.1837 10.9121 15.5221 13.3021 17.5074C17.0442 20.4913 16.5558 27.4381 12.1153 29.5285C8.37695 31.2591 3.98869 30.8224 0.129316 29.7348C0.153438 27.8758 0.0848706 26.0169 0 24.1604C0.278509 24.1564 0.839549 24.1441 1.1223 24.1401C1.31996 25.3087 1.50176 26.7442 2.68459 27.3466C4.79988 28.5353 7.52891 28.6324 9.72527 27.6094C12.4664 26.093 11.9616 21.71 9.39808 20.2341C7.1738 18.5183 4.6183 17.2499 2.56354 15.3129C0.28655 13.194 0.00402069 9.48197 1.4696 6.8336C2.66851 4.72278 5.08665 3.66669 7.41612 3.47252Z" fill="#9F9F9F"/>
<path d="M23.2047 7.44757C23.4147 7.45965 23.8383 7.47979 24.0483 7.49187C24.0443 8.90318 24.0443 10.3102 24.0443 11.7216H30.5036V14.1476H24.0443C24.0686 17.5442 23.9918 20.9447 24.0807 24.3453C24.1696 25.6392 24.2057 27.2525 25.4129 28.0451C26.9348 28.9509 28.7555 28.3849 30.2776 27.7905C30.7459 28.9388 29.555 29.5817 28.7273 30.0588C26.7856 31.0011 24.4159 31.1022 22.4094 30.3177C20.6937 29.6747 19.8662 27.7946 19.7773 26.0721C19.5714 22.1012 19.7773 18.1227 19.8094 14.148H17.2863C17.2821 13.8812 17.2781 13.6183 17.274 13.3555C20.0154 12.3202 21.8644 9.95434 23.2047 7.44757Z" fill="#9F9F9F"/>
<path d="M40.4909 11.0799C37.5803 11.05 34.6451 12.498 33.7099 15.4251C33.9643 15.5707 34.4809 15.8577 34.7393 16.0033C35.8576 14.026 38.4696 13.0111 40.5282 14.1515C42.1432 14.8875 42.2805 16.8646 42.2484 18.4132C39.7089 19.2302 37.0809 19.8731 34.6828 21.0701C31.8084 22.5904 31.437 26.9006 33.496 29.2338C35.9224 31.4616 39.9714 31.1017 42.3694 28.9949C43.1 30.4424 44.8278 30.9965 46.3335 30.5719C47.6457 30.3171 48.5134 29.2215 49.3735 28.2956C49.224 28.1256 48.9214 27.7817 48.772 27.6079C48.2311 27.7455 47.6213 28.1741 47.0925 27.7576C46.4063 27.2845 46.491 26.3344 46.4425 25.6025C46.491 22.4646 46.6645 19.3192 46.499 16.1774C46.4182 14.552 45.6917 12.8899 44.2544 12.0367C43.1317 11.4126 41.8137 11.0934 40.4909 11.0799ZM42.2037 20.8636C42.2198 22.9783 42.2037 25.0929 42.22 27.2077C40.8676 27.8102 39.2607 28.3681 37.8358 27.6766C36.0917 26.7467 36.1645 23.965 37.6057 22.7964C38.9904 21.8421 40.6334 21.3933 42.2037 20.8636Z" fill="#9F9F9F"/>
<path d="M96.1307 11.1593C94.0031 11.1837 91.8068 11.7132 90.1433 13.1001C87.6687 15.1058 86.595 18.4214 86.704 21.5347C86.692 24.1994 87.5195 27.0419 89.6149 28.8132C92.0895 30.9723 95.6865 31.1866 98.7666 30.5437C102.016 29.8279 104.459 26.9773 105.149 23.7831C105.892 20.4674 105.581 16.6142 103.304 13.9374C101.552 11.8834 98.7465 11.1067 96.1307 11.1593ZM96.1588 13.4224C97.3021 13.4446 98.4336 13.915 99.1664 14.8268C100.494 16.4562 100.85 18.6478 100.947 20.6938C100.963 22.9216 100.68 25.3273 99.2794 27.1468C97.9027 28.9299 94.9358 29.1281 93.3492 27.5229C92.134 26.3947 91.6817 24.7168 91.4072 23.1399C91.1207 21.0452 91.1935 18.8657 91.8514 16.8482C92.3117 15.4975 93.2078 14.1309 94.6287 13.6699C95.1172 13.4942 95.6391 13.4124 96.1588 13.4224Z" fill="#9F9F9F"/>
<path d="M50.8915 12.4452C53.1484 12.4087 55.4375 12.1743 57.5204 11.2401C57.5932 11.7779 57.6497 12.3156 57.6941 12.8617C60.0879 11.2927 63.1803 10.6822 65.9214 11.6526C67.8835 12.3116 69.2562 14.2365 69.4297 16.2742C69.8333 20.152 69.2481 24.0822 69.7647 27.952C69.8212 29.1689 71.1294 29.4438 72.0781 29.642C72.0821 29.8684 72.0821 30.3214 72.0862 30.5478C68.8807 30.293 62.4618 30.5357 62.4618 30.5357L62.4498 29.6188C62.4498 29.6188 64.7652 28.9669 64.9124 28.2996C65.4412 25.4208 65.316 22.4447 65.2878 19.5212C65.1828 17.7746 65.2273 15.591 63.56 14.5276C61.7715 13.4965 59.5794 13.9737 57.7506 14.6408C57.7629 18.4255 57.7506 22.2141 57.7506 25.9991C57.8031 27.0098 57.7305 28.1622 58.3885 29.0031C58.9417 29.3872 59.6361 29.4561 60.2697 29.634C60.274 29.8603 60.278 30.3174 60.278 30.5478C57.1168 30.3415 53.9478 30.2082 50.7908 30.5437C50.7908 30.3174 50.7988 29.8684 50.7988 29.646C51.7597 29.4237 53.0274 29.1204 53.2089 27.956C53.6489 25.166 53.3099 22.3152 53.4149 19.5011C53.3744 17.8958 53.552 16.2702 53.2695 14.6853C53.0475 13.6015 51.7273 13.6623 50.8955 13.4478C50.8955 13.1972 50.8915 12.6957 50.8915 12.4452Z" fill="#9F9F9F"/>
<path d="M107.304 12.3603C109.565 12.3278 111.825 12.0207 113.973 11.2968L114.034 12.9627C116.206 11.2118 119.48 10.7671 121.793 12.5016L119.381 16.1891C118.255 14.4503 115.97 14.0299 114.165 14.9153C114.165 14.9153 114.153 22.5696 114.177 26.3947C114.27 27.2479 114.137 28.3558 114.936 28.9137C115.707 29.3665 116.644 29.3424 117.504 29.4797C117.504 29.7426 117.5 30.2763 117.5 30.5391C114.032 30.3047 110.556 30.2562 107.088 30.5311L107.087 29.4799C108.205 29.2889 109.369 28.9017 109.539 28.2344C110.019 26.5888 109.785 24.846 109.833 23.1517C109.785 20.4546 109.93 17.7536 109.769 15.0607C109.757 13.7508 108.275 13.6335 107.314 13.4434C107.316 13.0721 107.308 12.6907 107.306 12.3598L107.304 12.3603Z" fill="#9F9F9F"/>
</svg>
