<svg width="167" height="45" viewBox="0 0 167 45" fill="none" xmlns="http://www.w3.org/2000/svg">
<path fill-rule="evenodd" clip-rule="evenodd" d="M18.4493 0.285096L0.140486 0.289543L0.102173 15.0187C0.102173 33.0769 18.1089 44.5777 18.2887 44.6918L18.3437 44.7274C18.3933 44.7274 18.5063 44.6454 18.5063 44.6454C21.5692 42.6348 36.8279 31.746 36.8279 15.111V0.315232C36.7891 0.278182 18.4493 0.284606 18.4493 0.284606" fill="#9F9F9F"/>
<path fill-rule="evenodd" clip-rule="evenodd" d="M37.1869 0.867463C37.1801 5.8297 37.2803 10.7267 37.1732 15.7641C37.0877 19.1919 36.3736 22.5862 35.1162 25.7631C32.1588 33.2339 26.4937 39.4534 20.0658 43.9335C19.5314 44.3054 18.9881 44.6626 18.4287 45C14.6536 42.5725 11.2787 39.4119 8.39016 35.9697C3.59242 30.2516 0.142439 23.2324 0.00638544 15.44L0 15.3392V0H37.1884L37.1869 0.867463ZM0.657184 15.2207C0.745594 24.3266 5.86456 32.9898 12.3279 39.2236C14.2203 41.049 16.2366 42.7488 18.411 44.2066L18.4395 44.2254C21.9435 42.0483 25.0983 39.2251 27.8321 36.1371C32.8922 30.421 36.4816 23.1691 36.5278 15.2132C36.5371 10.4382 36.5273 5.66174 36.5337 0.866476L36.5342 0.657022H0.653256L0.655711 14.6822L0.657184 15.2207Z" fill="#231F20"/>
<path fill-rule="evenodd" clip-rule="evenodd" d="M27.624 17.6556C27.624 17.6556 27.3111 18.6584 25.9201 17.6279L21.1449 17.5118C21.1449 17.5118 20.5197 17.7139 20.4347 17.0563C20.4347 17.0563 20.5491 15.7418 20.4912 15.6267C20.4912 15.6267 20.5197 15.2557 19.8925 15.2557C19.8925 15.2557 18.9278 15.3698 18.8988 14.5108C18.8988 14.5108 18.7303 13.5964 20.0649 13.6265C20.0649 13.6265 20.4912 13.8261 20.5197 13.2817C20.5197 13.2817 20.4637 9.56434 20.4912 9.28029C20.4912 9.28029 20.6056 8.93894 19.9504 8.88065C19.9504 8.88065 19.0133 9.08022 18.8988 8.45283C18.8988 8.45283 18.8428 7.50979 19.4691 7.451C19.4691 7.451 20.2358 7.50979 20.3772 7.30823C20.3772 7.30823 20.5491 7.42136 20.5197 6.73865L20.5491 5.56392C20.5491 5.56392 20.6312 5.25072 21.1155 5.28135C21.1155 5.28135 21.9971 5.33767 22.1125 5.25073C22.1125 5.25073 22.309 4.99483 22.367 4.87825C22.367 4.87825 22.8228 4.85059 22.9068 4.96569C22.9068 4.96569 23.5895 5.42313 26.1755 5.25073C26.1755 5.25073 26.5743 5.25073 26.6573 5.36583C26.6573 5.36583 27.1421 5.73633 27.4255 5.33767C27.4255 5.33767 27.8519 5.25072 29.1299 5.28135C29.1299 5.28135 30.5248 5.65136 31.4885 4.85059L31.8018 4.90839C31.8018 4.90839 32.1997 5.56392 32.4836 5.36583C32.4836 5.36583 33.3372 5.28135 33.4782 5.45178C33.4782 5.45178 33.7611 5.87761 33.6201 6.99652C33.6201 6.99652 33.4517 7.48065 34.2749 7.48065C34.2749 7.48065 35.214 7.30824 35.0986 8.19398C35.0986 8.19398 35.354 9.19532 33.7925 9.05305C33.7925 9.05305 33.5926 9.33907 33.6201 9.53914C33.6201 9.53914 33.5926 12.7966 33.5637 13.1701C33.5637 13.1701 33.5362 13.6853 34.2169 13.6552C34.2169 13.6552 35.1276 13.5964 35.1575 14.4263C35.1575 14.4263 35.2705 15.5126 33.9615 15.3115C33.9615 15.3115 33.5637 15.3698 33.5047 15.6267L33.4517 17.0563C33.4517 17.0563 33.4782 17.7707 32.684 17.5983C32.5705 17.5983 28.2507 17.6862 27.8803 17.5721C27.8803 17.5721 27.679 17.5434 27.624 17.6556Z" fill="white"/>
<path fill-rule="evenodd" clip-rule="evenodd" d="M18.4435 22.433C18.4435 22.433 18.6429 22.3486 18.6989 22.2078C18.6989 22.2078 19.2967 22.149 19.3806 22.064L21.2574 22.2078C21.2574 22.2078 23.1042 22.3486 23.8999 21.7745C23.8999 21.7745 24.1862 21.7745 24.3852 21.8615C24.3852 21.8615 24.7811 21.9489 24.8945 22.1179L25.9756 22.0892C25.9756 22.0892 26.6008 22.2913 26.5429 22.6919V23.2052C26.5429 23.2052 26.4284 24.2347 26.7123 24.2934H27.539C27.539 24.2934 28.2217 24.6071 28.1357 25.0068C28.1357 25.0068 28.1642 25.5764 27.5684 25.6925C27.5684 25.6925 26.9687 25.8629 26.7723 25.8357C26.7723 25.8357 26.5724 26.0921 26.5429 26.4063L26.4599 30.1518C26.4599 30.1518 26.4019 30.5514 26.9992 30.4946C26.9992 30.4946 27.8784 30.4087 28.1357 30.8967C28.1357 30.8967 28.3636 31.7242 27.9088 31.867L27.5684 32.0364L26.8278 32.1555C26.8278 32.1555 26.5168 32.1816 26.4874 32.7241V33.7229C26.4874 33.7229 26.5169 34.4116 25.9756 34.4116L25.1794 34.4689C25.1794 34.4689 24.981 34.6378 24.5836 34.5237C24.5836 34.5237 19.7515 34.6116 19.5806 34.5538L19.0118 34.6694C19.0118 34.6694 18.387 35.241 17.8752 34.8102L17.4774 34.496C17.4774 34.496 17.1925 34.5538 17.081 34.5237C16.967 34.496 11.7366 34.5825 11.7366 34.5825C11.7366 34.5825 10.628 34.6981 10.544 34.3246C10.544 34.3246 10.4021 32.8678 10.4586 32.6934C10.4586 32.6934 10.4586 32.2666 10.2031 32.239C10.2031 32.239 9.09408 32.1817 9.0656 32.0656C9.0656 32.0656 8.46784 31.6387 8.63877 31.2109C8.63877 31.2109 8.83868 30.6369 9.43446 30.5801C9.43446 30.5801 10.3441 30.7248 10.3441 30.467C10.3441 30.467 10.4021 30.2956 10.4021 30.0105C10.4021 30.0105 10.4586 26.6068 10.4296 26.3786C10.4296 26.3786 10.5145 25.9498 10.1447 25.9498C10.1447 25.9498 9.74734 26.0635 9.49242 25.8925C9.49242 25.8925 8.81019 25.9217 8.66824 25.3778C8.66824 25.3778 8.5538 25.0354 8.72325 24.7469C8.72325 24.7469 9.03711 24.1191 9.94675 24.3201C9.94675 24.3201 10.4586 24.4639 10.5145 24.0939L10.488 22.7186C10.488 22.7186 10.3726 22.3486 11.0838 22.149C11.0838 22.149 11.993 22.4054 12.2764 21.9489C12.2764 21.9489 12.5902 21.3181 12.8427 21.7469C12.8427 21.7469 13.3849 22.2626 14.8629 22.2078C14.8629 22.2078 17.4214 22.0057 17.4774 22.1179C17.4774 22.1179 18.1031 22.2078 18.2726 22.4054L18.4435 22.433ZM10.7164 17.6556C10.7164 17.6556 10.4031 18.6584 9.01059 17.6269L4.23593 17.5118C4.23593 17.5118 3.61067 17.7139 3.52471 17.0553C3.52471 17.0553 3.63916 15.7418 3.58021 15.6267C3.58021 15.6267 3.61066 15.2537 2.98442 15.2537C2.98442 15.2537 2.01977 15.3708 1.99177 14.5127C1.99177 14.5127 1.82035 13.5949 3.15585 13.6265C3.15585 13.6265 3.58021 13.8261 3.61067 13.2827C3.61067 13.2827 3.55369 9.56729 3.58021 9.27979C3.58021 9.27979 3.69662 8.93991 3.04238 8.88162C3.04238 8.88162 2.10327 9.08021 1.99177 8.45135C1.99177 8.45135 1.93381 7.50978 2.55809 7.45099C2.55809 7.45099 3.32579 7.50978 3.46872 7.31168C3.46872 7.31168 3.63915 7.42234 3.61067 6.73568L3.63915 5.5649C3.63915 5.5649 3.72511 5.25071 4.20547 5.27937C4.20547 5.27937 5.08909 5.33568 5.20353 5.25071C5.20353 5.25071 5.40196 4.99482 5.45648 4.87824C5.45648 4.87824 5.91376 4.85157 5.99873 4.96272C5.99873 4.96272 6.6795 5.42312 9.26845 5.25071C9.26845 5.25071 9.66433 5.25072 9.74979 5.36582C9.74979 5.36582 10.2326 5.73632 10.5165 5.33568C10.5165 5.33568 10.9428 5.25071 12.2228 5.27937C12.2228 5.27937 13.6128 5.65036 14.5805 4.85156L14.8923 4.91035C14.8923 4.91035 15.2897 5.5649 15.5765 5.36582C15.5765 5.36582 16.4282 5.27937 16.5712 5.45177C16.5712 5.45177 16.856 5.88056 16.7111 6.99651C16.7111 6.99651 16.5422 7.48162 17.3659 7.48162C17.3659 7.48162 18.303 7.31169 18.1905 8.19397C18.1905 8.19397 18.4469 9.19531 16.8835 9.05304C16.8835 9.05304 16.6836 9.33956 16.7111 9.53913C16.7111 9.53913 16.6836 12.7966 16.6556 13.17C16.6556 13.17 16.6281 13.6813 17.3099 13.6551C17.3099 13.6551 18.2195 13.5949 18.247 14.4273C18.247 14.4273 18.3605 15.5126 17.054 15.3115C17.054 15.3115 16.6556 15.3708 16.5977 15.6267L16.5422 17.0553C16.5422 17.0553 16.5712 17.7707 15.773 17.6002C15.6595 17.6002 11.3422 17.6842 10.9713 17.5721C10.9713 17.5721 10.7729 17.5434 10.7164 17.6556Z" fill="white"/>
<path fill-rule="evenodd" clip-rule="evenodd" d="M27.624 17.6556C27.624 17.6556 27.3111 18.6584 25.9201 17.6279L21.1449 17.5118C21.1449 17.5118 20.5197 17.7139 20.4347 17.0563C20.4347 17.0563 20.5491 15.7418 20.4912 15.6267C20.4912 15.6267 20.5197 15.2557 19.8925 15.2557C19.8925 15.2557 18.9278 15.3698 18.8988 14.5108C18.8988 14.5108 18.7303 13.5964 20.0649 13.6265C20.0649 13.6265 20.4912 13.8261 20.5197 13.2817C20.5197 13.2817 20.4637 9.56434 20.4912 9.28029C20.4912 9.28029 20.6056 8.93894 19.9504 8.88065C19.9504 8.88065 19.0133 9.08022 18.8988 8.45283C18.8988 8.45283 18.8428 7.50979 19.4691 7.451C19.4691 7.451 20.2358 7.50979 20.3772 7.30823C20.3772 7.30823 20.5491 7.42136 20.5197 6.73865L20.5491 5.56392C20.5491 5.56392 20.6312 5.25072 21.1155 5.28135C21.1155 5.28135 21.9971 5.33767 22.1125 5.25073C22.1125 5.25073 22.309 4.99483 22.367 4.87825C22.367 4.87825 22.8228 4.85059 22.9068 4.96569C22.9068 4.96569 23.5895 5.42313 26.1755 5.25073C26.1755 5.25073 26.5743 5.25073 26.6573 5.36583C26.6573 5.36583 27.1421 5.73633 27.4255 5.33767C27.4255 5.33767 27.8519 5.25072 29.1299 5.28135C29.1299 5.28135 30.5248 5.65136 31.4885 4.85059L31.8018 4.90839C31.8018 4.90839 32.1997 5.56392 32.4836 5.36583C32.4836 5.36583 33.3372 5.28135 33.4782 5.45178C33.4782 5.45178 33.7611 5.87761 33.6201 6.99652C33.6201 6.99652 33.4517 7.48065 34.2749 7.48065C34.2749 7.48065 35.214 7.30824 35.0986 8.19398C35.0986 8.19398 35.354 9.19532 33.7925 9.05305C33.7925 9.05305 33.5926 9.33907 33.6201 9.53914C33.6201 9.53914 33.5926 12.7966 33.5637 13.1701C33.5637 13.1701 33.5362 13.6853 34.2169 13.6552C34.2169 13.6552 35.1276 13.5964 35.1575 14.4263C35.1575 14.4263 35.2705 15.5126 33.9615 15.3115C33.9615 15.3115 33.5637 15.3698 33.5047 15.6267L33.4517 17.0563C33.4517 17.0563 33.4782 17.7707 32.684 17.5983C32.5705 17.5983 28.2507 17.6862 27.8803 17.5721C27.8803 17.5721 27.679 17.5434 27.624 17.6556Z" fill="#231F20"/>
<path fill-rule="evenodd" clip-rule="evenodd" d="M27.0271 16.2713C27.0271 16.2713 26.4873 16.2713 26.5149 16.9876C26.5149 16.9876 26.5723 17.5285 27.1406 17.5285C27.1406 17.5285 27.6504 17.4441 27.5959 16.8725C27.5959 16.8725 27.2826 16.1582 27.0271 16.2713ZM33.4772 8.65233C33.4767 8.65282 33.1943 8.82325 33.2788 9.16707L33.1938 13.3127C33.1938 13.3127 33.1368 14.0266 33.8195 13.9994C33.8195 13.9994 34.5288 13.9698 34.6717 14.199C34.6717 14.199 35.1575 14.9133 34.1044 14.856C34.1044 14.856 33.4502 14.8259 33.3082 14.9419C33.3082 14.9419 33.1938 15.0837 33.1088 16.4289C33.1088 16.4289 33.1673 17.2297 32.5695 17.1417C32.5695 17.1417 28.618 17.198 28.2492 17.1141C28.2492 17.1141 27.8518 17.2297 27.7944 16.9135C27.7944 16.9135 27.7944 16.6823 28.1927 16.6823L32.1702 16.6546C32.1702 16.6546 32.541 16.8552 32.541 16.17C32.541 16.17 32.6864 13.0544 32.6997 9.62354C32.7041 8.60244 32.7503 7.53095 32.7144 6.53801C32.7144 6.53801 32.626 6.10872 32.5115 6.02128C32.5115 6.02128 32.5115 5.56482 32.9953 5.73673C32.9953 5.73673 33.4217 5.76539 33.3082 6.42488L33.3377 7.42128C33.3377 7.42128 33.2522 7.85254 34.0175 7.73695C34.0175 7.73695 34.7842 7.85254 34.8146 8.13659C34.8146 8.13659 35.0416 8.71062 34.1339 8.65233H33.4772ZM21.3718 17.1136C20.8026 17.0869 20.86 16.6556 20.86 16.6556V15.5698C20.8885 14.9958 20.2927 14.8837 20.2927 14.8837C19.469 15.0531 19.2686 14.5393 19.2686 14.5393C19.2387 13.9391 20.2078 14.0004 20.2078 14.0004C21.003 14.0004 20.7751 13.2826 20.7751 13.2826L20.8325 8.96503C20.775 8.5392 19.7515 8.5392 19.7515 8.5392C19.0982 8.65233 19.2686 8.02248 19.2686 8.02248C19.5815 7.7078 20.2642 7.73744 20.2642 7.73744C20.86 7.76609 20.86 7.10759 20.86 7.10759L20.8885 5.93681C21.5418 5.33759 21.6572 5.82121 21.6572 5.82121C21.2868 6.39425 21.3718 7.79721 21.3718 7.79721L21.3453 7.68014C21.3718 7.8229 21.3158 15.8835 21.3158 15.8835C21.3718 16.7712 21.9696 16.5702 21.9696 16.5702L25.6637 16.628C26.004 16.628 26.0315 16.8557 26.0315 16.8557C26.0315 17.1412 25.8061 17.1141 25.8056 17.1136H21.3718ZM22.168 15.8707C22.168 15.8707 22.0536 16.2713 22.4794 16.1878H25.4083L26.2025 16.3612C26.2025 16.3612 27.0267 16.1582 26.2025 15.7007C26.2025 15.7007 23.5885 15.7269 23.3606 15.6721L22.7049 15.5007C22.7049 15.5007 22.4224 15.3865 22.168 15.8707ZM27.4245 15.9868C27.4245 15.9868 27.6799 15.7007 27.8513 15.7007C27.8513 15.7007 30.6942 15.9571 31.1751 15.6143C31.1751 15.6143 31.6039 15.5293 31.7183 15.6143C31.7183 15.6143 32.1432 15.9571 32.1432 16.1592C32.1432 16.1592 32.1157 16.418 31.6039 16.2713C31.6039 16.2713 28.3901 16.3029 28.2197 16.3029C28.2197 16.3029 27.3371 16.5015 27.4245 15.9868ZM21.7608 15.8015C21.7269 15.8055 21.6228 15.7901 21.5987 15.4562L21.6562 6.88133C21.6562 6.88133 21.7122 5.82072 22.2535 5.87753C22.2535 5.87753 22.309 6.45008 22.309 6.59482C22.309 6.73759 22.226 14.856 22.226 14.856C22.226 14.856 22.3075 15.4715 21.7878 15.7892L21.7711 15.799L21.7608 15.8015ZM32.4457 7.42128L32.3416 15.2566C32.3141 15.5422 32.2576 15.716 32.2576 15.716C31.8887 15.8005 31.6608 14.9968 31.6608 14.9968L31.6888 5.96398C32.1702 5.28028 32.456 6.64965 32.456 6.64965V6.65064L32.4457 7.42128ZM27.1691 6.07809C27.1691 6.07809 27.0841 10.3947 27.1126 10.5374L27.0566 14.1669L26.9412 15.4256C26.9412 15.4256 27.1126 15.6825 27.255 15.5115C27.255 15.5115 28.1642 15.2798 28.7325 15.3697C28.7325 15.3697 30.5533 15.5397 30.9211 15.2517C30.9211 15.2517 31.206 15.3949 31.2895 14.9375C31.2895 14.9375 31.4015 6.93617 31.3494 6.79341C31.3494 6.79341 31.459 5.64683 31.4015 5.53519C31.4015 5.53519 31.3769 5.27831 30.8927 5.50555C30.8927 5.50555 30.9482 5.73575 28.2502 5.64683C28.2502 5.64683 27.2271 5.61867 27.1691 6.07809ZM22.6798 5.61867L22.5939 14.7972C22.5939 14.7972 22.5663 15.223 23.2766 15.3095C23.2766 15.3095 24.1003 15.3944 24.2977 15.3095C24.2977 15.3095 24.841 15.2798 26.231 15.3381C26.231 15.3381 26.5738 15.6844 26.6028 15.2522C26.6028 15.2522 26.8277 7.8229 26.7172 6.27569C26.7172 6.27569 26.6858 5.61867 26.2044 5.59002C26.2044 5.59002 24.0438 5.76539 23.8449 5.59002L22.9917 5.36377C22.9917 5.36377 22.6503 5.39143 22.6798 5.61867Z" fill="white"/>
<path fill-rule="evenodd" clip-rule="evenodd" d="M25.1591 8.46868C26.2962 8.84066 26.1258 9.67008 26.1258 9.67008C26.2117 10.4975 25.3306 10.8428 25.3306 10.8428L25.2716 11.3003L26.0973 12.6128C26.2392 12.7275 26.2117 12.8435 26.2117 12.8435C26.0973 13.1582 25.6415 12.8435 25.6415 12.8435L24.6198 11.2415C24.5339 11.1264 24.3629 11.3279 24.3629 11.3279L24.307 12.2137L24.5604 12.6415C24.7328 12.8697 24.4479 13.0431 24.4479 13.0431L23.5383 12.9577C23.3698 12.8697 23.5383 12.5847 23.5383 12.5847C23.7662 12.4439 23.7947 12.0699 23.7947 12.0699L23.7662 10.4126L23.7947 9.21214C23.7947 9.06789 23.5677 8.81299 23.5677 8.81299C23.3698 8.78434 23.4258 8.52697 23.4258 8.52697C23.4823 8.38371 23.9622 8.46868 23.9636 8.46868H25.1591ZM28.199 8.66924C28.1145 8.44101 28.6823 8.41235 28.6823 8.41235L28.9677 8.46868C29.1671 8.44101 29.366 8.52697 29.366 8.52697C29.5644 8.84066 29.2231 9.01158 29.2231 9.01158L29.1096 9.38455C29.0801 9.69972 29.1096 12.4152 29.1096 12.4152C29.1671 12.556 29.3935 12.8124 29.3935 12.8124C29.3935 13.0708 29.0801 13.0145 29.0801 13.0145L28.2574 13.0431C28.001 13.0145 28.0855 12.7274 28.0855 12.7274C28.3699 12.5852 28.4559 12.0689 28.4559 12.0689V9.24079L28.199 8.66924ZM24.3914 9.0679C24.4194 9.69874 24.4194 10.5563 24.4194 10.5563C24.9607 10.9856 25.2716 10.3834 25.2716 10.3834C25.9809 9.69873 25.2716 9.0679 25.1591 8.89845C25.0437 8.72555 24.4754 8.86882 24.4754 8.86882L24.3914 9.0679ZM18.4434 22.4331C18.4434 22.4331 18.6428 22.3486 18.6988 22.2078C18.6988 22.2078 19.2965 22.149 19.3805 22.0641L21.2573 22.2078C21.2573 22.2078 23.1041 22.3486 23.8998 21.7746C23.8998 21.7746 24.1861 21.7746 24.385 21.8615C24.385 21.8615 24.7809 21.949 24.8944 22.1179L25.9755 22.0893C25.9755 22.0893 26.6007 22.2913 26.5428 22.6919V23.2052C26.5428 23.2052 26.4283 24.2347 26.7122 24.2935H27.5389C27.5389 24.2935 28.2216 24.6072 28.1356 25.0068C28.1356 25.0068 28.1641 25.5764 27.5683 25.6925C27.5683 25.6925 26.9686 25.8629 26.7721 25.8358C26.7721 25.8358 26.5722 26.0921 26.5428 26.4063L26.4597 30.1518C26.4597 30.1518 26.4018 30.5515 26.9991 30.4947C26.9991 30.4947 27.8782 30.4087 28.1356 30.8968C28.1356 30.8968 28.3635 31.7242 27.9087 31.867L27.5683 32.0365L26.8276 32.1555C26.8276 32.1555 26.5167 32.1817 26.4873 32.7241V33.723C26.4873 33.723 26.5167 34.4116 25.9755 34.4116L25.1793 34.4689C25.1793 34.4689 24.9808 34.6379 24.5835 34.5237C24.5835 34.5237 19.7514 34.6117 19.5804 34.5539L19.0117 34.6695C19.0117 34.6695 18.3869 35.241 17.8751 34.8103L17.4772 34.4961C17.4772 34.4961 17.1924 34.5539 17.0809 34.5237C16.9669 34.4961 11.7365 34.5825 11.7365 34.5825C11.7365 34.5825 10.6279 34.6981 10.5439 34.3247C10.5439 34.3247 10.4019 32.8679 10.4584 32.6935C10.4584 32.6935 10.4584 32.2667 10.203 32.239C10.203 32.239 9.09396 32.1817 9.06547 32.0656C9.06547 32.0656 8.46772 31.6388 8.63864 31.211C8.63864 31.211 8.83855 30.6369 9.43434 30.5801C9.43434 30.5801 10.344 30.7249 10.344 30.467C10.344 30.467 10.4019 30.2956 10.4019 30.0106C10.4019 30.0106 10.4584 26.6069 10.4295 26.3787C10.4295 26.3787 10.5144 25.9499 10.1446 25.9499C10.1446 25.9499 9.74721 26.0635 9.4923 25.8926C9.4923 25.8926 8.81007 25.9217 8.66812 25.3778C8.66812 25.3778 8.55367 25.0355 8.72313 24.747C8.72313 24.747 9.03698 24.1191 9.94663 24.3202C9.94663 24.3202 10.4584 24.4639 10.5144 24.0939L10.4879 22.7186C10.4879 22.7186 10.3725 22.3486 11.0837 22.149C11.0837 22.149 11.9928 22.4054 12.2762 21.949C12.2762 21.949 12.5901 21.3181 12.8426 21.7469C12.8426 21.7469 13.3848 22.2627 14.8627 22.2078C14.8627 22.2078 17.4213 22.0058 17.4772 22.1179C17.4772 22.1179 18.103 22.2078 18.2724 22.4054L18.4434 22.4331Z" fill="#231F20"/>
<path fill-rule="evenodd" clip-rule="evenodd" d="M18.303 33.1248C18.303 33.1248 18.7853 33.2093 18.7853 33.6677C18.7853 34.1242 18.8143 34.382 18.5285 34.4384C18.2451 34.4962 17.9332 34.4117 17.8492 34.0402C17.7617 33.6677 17.9037 33.2093 18.303 33.1248ZM11.6806 22.8061C11.6806 22.8061 11.3392 23.436 11.3677 23.5802L11.3392 25.493C11.3392 25.493 11.3107 26.7221 11.3392 26.8658C11.3677 27.0076 11.3107 30.6104 11.3107 30.6104C11.3107 30.6104 11.2822 31.2945 11.3107 31.5248V33.0675C11.3107 33.0675 11.2537 33.7547 11.7646 33.5803C11.7646 33.5803 16.7676 33.4672 17.081 33.5541C17.081 33.5541 17.5338 33.6391 17.3659 33.8678C17.3659 33.8678 17.3659 34.0693 17.0505 34.0111C17.0505 34.0111 14.6919 34.2383 12.5612 34.1538C12.5612 34.1538 11.1403 34.2383 11.0533 34.0694C11.0533 34.0694 10.8274 34.0407 10.8274 33.2103C10.8274 33.2103 10.8274 32.4406 10.7719 32.2974C10.7719 32.2974 10.8274 31.8923 10.1172 31.8093C10.1172 31.8093 9.12256 31.9822 9.09407 31.382C9.09407 31.382 9.23553 30.9532 10.2026 31.009C10.2026 31.009 10.9134 31.1236 10.7719 30.5506L10.8559 26.3229C10.8559 26.3229 10.9433 25.5765 10.4585 25.5469C10.4585 25.5469 10.0057 25.5236 9.86079 25.5765C9.86079 25.5765 9.0371 25.5765 9.09407 25.0939C9.09407 25.0939 9.37846 24.5781 10.2026 24.6932C10.2026 24.6932 10.8274 24.8063 10.8559 24.094C10.8559 24.094 10.8274 22.6347 11.1678 22.5789C11.1678 22.5789 11.88 22.6051 11.6806 22.8061ZM25.5065 22.5754C25.5895 22.5537 26.0114 22.4534 26.0871 22.6337C26.0871 22.6337 26.3164 23.3174 26.1165 23.719C26.1165 23.719 26.0591 24.5495 26.4893 24.5495C26.4893 24.5495 26.6568 24.7219 26.9982 24.6349C26.9982 24.6349 27.7369 24.7219 27.7369 24.9481C27.7369 24.9481 27.7369 25.4648 27.2251 25.3789L26.5419 25.4342C26.5419 25.4342 26.0871 25.5226 26.145 26.0636C26.2035 26.607 26.1165 30.4948 26.1165 30.4948C26.1165 30.4948 26.1165 30.9542 26.8287 30.9255C26.8287 30.9255 27.7089 30.8959 27.7089 31.1518C27.7089 31.1518 27.9353 31.7233 27.3111 31.753C27.3111 31.753 26.1165 31.7233 26.2035 32.0657C26.2035 32.0657 26.1165 32.8679 26.0591 33.0087C26.0591 33.0087 26.1755 33.6677 26.0311 33.7828C26.0311 33.7828 25.9471 34.1528 25.1804 34.0965C25.1804 34.0965 20.2927 34.0684 19.5246 34.1252C19.5246 34.1252 19.0687 34.0684 19.1822 33.6677C19.1822 33.6677 19.5246 33.4943 19.7525 33.5536C19.9799 33.6104 23.3041 33.5255 23.3041 33.5255C23.3041 33.5255 24.7535 33.6391 24.9819 33.4365L25.3204 33.3234C25.3204 33.3234 25.4633 33.153 25.4633 32.9257C25.4633 32.6945 25.4923 31.9224 25.4923 31.9224L25.5787 31.6389C25.5787 31.6389 25.5492 31.3528 25.5787 23.719C25.5787 23.719 25.6902 23.1218 25.3204 22.7478C25.3204 22.7478 25.3204 22.5216 25.4338 22.5483L25.5065 22.5754L25.4923 22.5794L25.5065 22.5754ZM23.28 32.6101C23.34 32.6096 23.9687 32.5977 24.1568 32.3502C24.1568 32.3502 24.3557 32.2969 24.4701 32.496L24.8945 32.9559C24.8945 32.9559 24.925 33.2325 24.4603 33.2113L24.4407 33.2103C24.3645 33.2103 19.8065 33.2103 19.6655 33.2399C19.6655 33.2399 18.7848 33.3812 18.8693 32.8966C18.8693 32.8966 19.3806 32.5513 19.5796 32.6101C19.5796 32.6101 22.167 32.781 22.9637 32.6407C23.337 32.573 23.4289 32.5621 23.421 32.5696L23.28 32.6101ZM12.5318 32.2667C12.5318 32.2667 12.603 32.3428 12.7341 32.4288L12.7366 32.4307C12.9168 32.5478 13.2086 32.6827 13.5853 32.6674L17.4273 32.7237L17.4484 32.7242C17.4484 32.7242 17.8762 32.7538 17.8502 32.9811C17.8502 32.9811 17.7902 33.3244 17.2814 33.2113L12.6167 33.1545L12.1162 33.1836L12.1049 33.1841H12.104C12.104 33.1841 11.7636 33.1258 12.3048 32.4673L12.5308 32.2658L12.5318 32.2667ZM12.2538 31.8498C12.2503 32.039 12.1948 32.4051 11.8505 32.6684C11.8505 32.6684 11.5917 32.9821 11.5917 32.4979L11.7081 23.6924C11.7081 23.6924 11.7361 23.0334 12.1354 22.7478C12.1354 22.7478 12.3348 22.7478 12.3078 23.0912L12.2479 31.7243L12.2538 31.8498ZM24.9819 32.6427C24.8105 32.5513 24.4682 31.8938 24.4682 31.8938L24.4972 31.6972L24.5531 22.9193C24.5531 22.4633 24.925 22.7478 24.925 22.7478L25.2663 23.3777C25.1804 23.8332 25.2663 24.1182 25.2663 24.1182L25.2098 32.3532C25.2874 32.9534 25.0345 32.7 24.9888 32.6506L24.9819 32.6427ZM18.1601 27.9788C18.1601 27.9788 18.1891 28.6625 18.1021 29.3185C18.056 29.6816 18.2171 31.3514 18.0736 32.2075C18.0736 32.2075 18.0476 32.494 17.4479 32.2381C17.4479 32.2381 13.8113 32.3226 13.6978 32.2075C13.6978 32.2075 12.7037 32.2381 12.6177 31.7224C12.6177 31.7224 12.7597 27.8064 12.6747 27.6607C12.6747 27.6607 12.6177 25.5177 12.6747 25.3186C12.6747 25.3186 12.7597 23.3461 12.7037 23.1178C12.7037 23.1178 12.7322 22.6604 12.6462 22.4307C12.6462 22.4307 12.6462 22.1447 13.1305 22.3156C13.1305 22.3156 13.2985 22.6308 14.2376 22.491C14.2376 22.491 14.9208 22.6041 15.5751 22.5176C15.5751 22.5176 17.023 22.4035 17.3939 22.5176C17.3939 22.5176 17.9626 22.4035 18.1306 23.0344L18.1021 24.8054L18.2716 25.3769L18.472 25.2346L18.556 24.8054L18.5845 22.9183C18.5845 22.9183 18.6979 22.5744 19.1547 22.5176C19.1547 22.5176 19.8649 22.4307 19.9799 22.491C20.0933 22.5458 21.6258 22.6308 22.0546 22.5458C22.4794 22.4603 22.5634 22.8313 23.8449 22.1753C23.8449 22.1753 24.1862 22.2044 24.1862 22.4307C24.1862 22.4307 24.0698 24.8641 24.1862 25.3186C24.1862 25.3186 24.1862 29.777 24.0973 30.0917L24.1553 31.5208C24.1553 31.5208 24.2118 32.1502 23.2191 32.2075C23.2191 32.2075 23.8449 32.2934 19.9199 32.1793C19.9199 32.1793 19.2957 32.1502 18.6139 32.4638C18.6139 32.4638 18.472 32.4357 18.472 32.0647C18.472 32.0647 18.5844 30.7225 18.472 29.405L18.417 27.9477L18.1601 27.9788Z" fill="white"/>
<path fill-rule="evenodd" clip-rule="evenodd" d="M15.6016 25.9508C15.6016 25.9508 15.6875 28.0651 15.6016 28.3512L15.5746 28.8096C15.5746 28.8096 15.6875 29.1218 15.858 29.2379C15.858 29.2379 16.0009 29.6366 15.6586 29.6089C15.6586 29.6089 14.9493 29.5516 14.7789 29.5783C14.7789 29.5783 14.3796 29.5783 14.7789 29.067C14.7789 29.067 14.9208 28.8639 14.8914 28.3512C14.8914 28.3512 14.8914 25.9508 14.9493 25.809C14.9493 25.809 15.0058 25.4929 14.8064 25.4064L14.464 25.4361L14.0397 25.8362C14.0397 25.8362 13.9532 26.2665 13.7543 25.809V25.5783L14.0117 24.8927L14.1821 24.8625C14.1821 24.8625 14.4365 25.0344 14.6635 25.0937H16.0009L16.4832 24.8625C16.4832 24.8625 16.6817 24.8927 16.6272 25.1496C16.6272 25.1496 16.7102 25.809 16.3413 25.8925C16.3413 25.8925 16.1134 25.809 16.0009 25.4929C16.0009 25.4929 15.6311 25.2943 15.6016 25.9508ZM21.8822 25.1792C21.8822 25.1792 20.8036 25.0927 20.777 26.2645C20.777 26.2645 20.6596 27.0668 21.8552 27.582C21.8552 27.582 22.7373 28.0088 22.6779 28.5512C22.6779 28.5512 22.5644 29.5234 21.6263 29.0383C21.6263 29.0383 21.1729 28.8081 21.2029 28.5512C21.2029 28.5512 21.0585 28.2361 20.8885 28.2944C20.8885 28.2944 20.6886 28.3502 20.777 29.2942C20.777 29.2942 20.777 29.6662 21.2029 29.2942L21.4274 29.353C21.4274 29.353 22.1955 29.9819 22.8478 29.2083C22.8478 29.2083 23.56 28.5512 23.0467 27.7515C23.0467 27.7515 22.6779 27.1819 22.0251 26.8954C22.0251 26.8954 21.3998 26.6069 21.2584 26.1217C21.2584 26.1217 21.4578 25.2627 22.2235 25.7201C22.2235 25.7201 22.5084 26.0635 22.6779 26.1217C22.6779 26.1217 22.9058 26.1217 22.8478 25.605L22.7943 25.1792C22.7943 25.1792 22.7373 24.8611 22.3375 25.1792C22.3375 25.1792 21.9676 25.32 21.8822 25.1792ZM18.4155 24.577C18.6139 24.7227 18.6424 25.0078 18.6424 25.0078C19.2107 26.5214 19.695 28.7246 19.695 28.7246C19.836 29.0077 20.0928 29.2379 20.0928 29.2379C20.5757 29.4083 20.0928 29.5506 20.0928 29.5506C19.8934 29.6375 19.2412 29.5244 19.2412 29.5244C18.8983 29.4632 19.0393 29.352 19.0393 29.352C19.1832 29.2092 19.0688 28.6357 19.0688 28.6357C19.0393 28.4095 18.7858 28.0365 18.7858 28.0365C18.6724 27.9787 18.473 28.2361 18.473 28.2361C18.473 28.2361 18.1611 28.3507 18.1306 28.2361C18.1021 28.12 17.9037 28.0118 17.9037 28.0118C17.5623 28.0118 17.4214 28.8639 17.4214 28.8639C17.6198 29.5793 17.4214 29.4632 17.4214 29.4632C17.2519 29.6944 16.7102 29.5244 16.7102 29.5244C16.4548 29.4632 16.6272 29.2641 16.6272 29.2641C16.9381 29.2092 17.023 28.8639 17.023 28.8639C17.166 28.6644 18.0736 24.9495 18.0736 24.9495C18.1611 24.7766 18.2166 24.4342 18.4155 24.577ZM17.9631 26.4631C17.9332 26.6069 17.7333 27.4076 17.7333 27.4076L17.9037 27.6961C17.9037 27.6961 18.3595 27.7218 18.529 27.7218C18.6979 27.7218 18.7284 27.582 18.7284 27.4363C18.7284 27.2945 18.4155 26.4369 18.4155 26.4369L18.2721 26.2655L17.9631 26.4631ZM10.7164 17.6556C10.7164 17.6556 10.4031 18.6584 9.01059 17.6269L4.23593 17.5118C4.23593 17.5118 3.61067 17.7139 3.52471 17.0554C3.52471 17.0554 3.63916 15.7418 3.58021 15.6267C3.58021 15.6267 3.61066 15.2537 2.98442 15.2537C2.98442 15.2537 2.01977 15.3708 1.99177 14.5127C1.99177 14.5127 1.82035 13.5949 3.15585 13.6265C3.15585 13.6265 3.58021 13.8261 3.61067 13.2827C3.61067 13.2827 3.55369 9.56729 3.58021 9.27979C3.58021 9.27979 3.69662 8.93991 3.04238 8.88162C3.04238 8.88162 2.10327 9.08021 1.99177 8.45135C1.99177 8.45135 1.93381 7.50978 2.55809 7.45099C2.55809 7.45099 3.32579 7.50978 3.46872 7.31168C3.46872 7.31168 3.63915 7.42234 3.61067 6.73568L3.63915 5.5649C3.63915 5.5649 3.72511 5.25071 4.20547 5.27937C4.20547 5.27937 5.08909 5.33568 5.20353 5.25071C5.20353 5.25071 5.40196 4.99482 5.45648 4.87824C5.45648 4.87824 5.91376 4.85157 5.99873 4.96272C5.99873 4.96272 6.6795 5.42312 9.26845 5.25071C9.26845 5.25071 9.66433 5.25072 9.74979 5.36582C9.74979 5.36582 10.2326 5.73632 10.5165 5.33568C10.5165 5.33568 10.9428 5.25071 12.2228 5.27937C12.2228 5.27937 13.6128 5.65036 14.5805 4.85156L14.8923 4.91035C14.8923 4.91035 15.2897 5.5649 15.5765 5.36582C15.5765 5.36582 16.4282 5.27937 16.5712 5.45177C16.5712 5.45177 16.856 5.88056 16.7111 6.99651C16.7111 6.99651 16.5422 7.48162 17.3659 7.48162C17.3659 7.48162 18.303 7.31169 18.1905 8.19397C18.1905 8.19397 18.4469 9.19531 16.8835 9.05304C16.8835 9.05304 16.6836 9.33956 16.7111 9.53913C16.7111 9.53913 16.6836 12.7966 16.6556 13.17C16.6556 13.17 16.6281 13.6813 17.3099 13.6551C17.3099 13.6551 18.2195 13.5949 18.247 14.4273C18.247 14.4273 18.3605 15.5126 17.054 15.3115C17.054 15.3115 16.6556 15.3708 16.5977 15.6267L16.5422 17.0554C16.5422 17.0554 16.5712 17.7707 15.773 17.6002C15.6595 17.6002 11.3422 17.6842 10.9713 17.5721C10.9713 17.5721 10.7729 17.5434 10.7164 17.6556Z" fill="#231F20"/>
<path fill-rule="evenodd" clip-rule="evenodd" d="M5.34529 5.87962C5.34529 5.87962 5.40276 6.45019 5.40276 6.59296C5.40276 6.73572 5.31582 14.8551 5.31582 14.8551C5.31582 14.8551 5.40276 15.4855 4.86051 15.8001C4.86051 15.8001 4.71905 15.8579 4.68958 15.4578L4.74606 6.88145C4.74606 6.88145 4.80304 5.82281 5.34529 5.87962ZM14.7787 5.9641L14.7507 14.9979C14.7507 14.9979 14.9786 15.8006 15.3494 15.7147C15.3494 15.7147 15.4059 15.5423 15.4334 15.2548L15.5488 6.64977C15.5488 6.64977 15.264 5.27744 14.7787 5.9641Z" fill="#231F20"/>
<path fill-rule="evenodd" clip-rule="evenodd" d="M15.5733 6.64476L15.5744 6.65021L15.4584 15.2573C15.4445 15.4021 15.4232 15.5181 15.4055 15.5981C15.3966 15.638 15.3886 15.669 15.3828 15.69C15.3798 15.7006 15.3775 15.7086 15.3758 15.7141L15.3739 15.7203L15.3734 15.7219L15.3688 15.736L15.3551 15.7391C15.252 15.763 15.1603 15.7244 15.0831 15.658C15.0063 15.592 14.9413 15.4967 14.889 15.4006C14.8366 15.3042 14.796 15.2053 14.7686 15.1307C14.7549 15.0934 14.7444 15.062 14.7374 15.0399L14.7294 15.0142L14.7273 15.0073L14.7268 15.0055L14.7247 14.9979L14.7257 14.9979L14.7537 5.96412L14.7787 5.96419L14.7582 5.94977C14.8201 5.86218 14.8804 5.80505 14.9396 5.77433C14.9995 5.74316 15.0575 5.73963 15.1117 5.75796C15.165 5.77597 15.2125 5.81432 15.2545 5.86307C15.2967 5.91197 15.3345 5.97278 15.368 6.03813C15.435 6.16881 15.4863 6.32063 15.5207 6.43919C15.538 6.49859 15.5511 6.54989 15.5599 6.58637C15.5643 6.60462 15.5677 6.61917 15.5699 6.62918L15.5724 6.6407L15.5731 6.64371L15.5733 6.64476ZM14.8036 5.97223L14.7757 14.9945L14.7773 14.9998L14.785 15.0247C14.7919 15.0462 14.8021 15.0769 14.8155 15.1135C14.8425 15.1867 14.8821 15.2831 14.9329 15.3767C14.984 15.4705 15.0455 15.5598 15.1157 15.6201C15.1816 15.6767 15.2528 15.7061 15.3299 15.6932C15.3312 15.6887 15.3328 15.6832 15.3346 15.6767C15.3402 15.6564 15.348 15.6263 15.3567 15.5872C15.374 15.5092 15.3948 15.3956 15.4084 15.2535L15.5238 6.65232L15.5236 6.65121L15.5211 6.64007C15.5189 6.63031 15.5157 6.61605 15.5113 6.59811C15.5027 6.56222 15.4897 6.51168 15.4727 6.45315C15.4386 6.33585 15.3884 6.18751 15.3235 6.06094C15.291 5.99766 15.2553 5.94058 15.2167 5.89571C15.1779 5.85069 15.1374 5.81941 15.0957 5.80533C15.055 5.79157 15.0111 5.79348 14.9626 5.81869C14.9145 5.84369 14.8613 5.89198 14.8036 5.97223ZM4.77103 6.88234L4.71456 15.4571C4.72926 15.6551 4.77139 15.7319 4.8029 15.7606C4.81802 15.7744 4.83115 15.7776 4.83943 15.7781C4.84379 15.7783 4.84723 15.7779 4.84936 15.7774L4.85039 15.7772C5.11218 15.6242 5.22232 15.3957 5.26714 15.204C5.28964 15.1078 5.29559 15.0211 5.2959 14.9585C5.29606 14.9272 5.29481 14.902 5.29354 14.8848C5.2929 14.8761 5.29226 14.8695 5.29178 14.865L5.29121 14.8601L5.29106 14.8589L5.29052 14.8549L5.33426 10.7774C5.356 8.72955 5.37773 6.66426 5.37773 6.59306C5.37773 6.52306 5.36351 6.34607 5.3491 6.18508C5.34192 6.10491 5.33474 6.02919 5.32936 5.97351L5.32286 5.90698L5.32246 5.903C5.2062 5.89701 5.11476 5.94703 5.04151 6.02895C4.96331 6.11641 4.90668 6.23957 4.86613 6.36692C4.82569 6.49389 4.80187 6.62295 4.78817 6.7205C4.78133 6.76922 4.77703 6.80994 4.77444 6.83843C4.77315 6.85268 4.77229 6.86386 4.77175 6.87145L4.77117 6.88007L4.77103 6.88234ZM5.34526 5.87972L5.34787 5.85485C5.20269 5.83964 5.08999 5.89972 5.00424 5.99562C4.91924 6.09068 4.85995 6.22153 4.81849 6.35174C4.7769 6.48233 4.75258 6.61438 4.73866 6.71355C4.73168 6.76319 4.7273 6.80474 4.72465 6.83391C4.72332 6.84851 4.72243 6.86001 4.72187 6.86791L4.72127 6.87697L4.72112 6.87934L4.66455 15.4577L4.66462 15.4597C4.67945 15.6611 4.7227 15.7552 4.76923 15.7976C4.79316 15.8194 4.81724 15.8268 4.8364 15.828C4.84577 15.8285 4.85361 15.8276 4.85933 15.8264C4.8622 15.8259 4.86455 15.8252 4.86633 15.8247L4.86858 15.8239L4.86968 15.8235L4.86048 15.8002" fill="#030404"/>
<path fill-rule="evenodd" clip-rule="evenodd" d="M10.0352 16.344C10.0352 16.344 9.49391 16.3441 9.5219 17.0544C9.5219 17.0544 9.57937 17.6008 10.1467 17.6008C10.1467 17.6008 10.6585 17.5119 10.6035 16.9433C10.6035 16.9433 10.2896 16.227 10.0352 16.344ZM16.5717 8.65246C16.5712 8.65296 16.2868 8.82338 16.3717 9.16721L16.2868 13.3114C16.2868 13.3114 16.2278 14.0257 16.912 13.9995C16.912 13.9995 17.6228 13.9699 17.7627 14.1981C17.7627 14.1981 18.248 14.9134 17.1954 14.8561C17.1954 14.8561 16.5412 14.826 16.3993 14.9401C16.3993 14.9401 16.2868 15.0858 16.2008 16.4275C16.2008 16.4275 16.2573 17.2283 15.6605 17.1419C15.6605 17.1419 11.7101 17.1972 11.3422 17.1127C11.3422 17.1127 10.9429 17.2283 10.8864 16.9136C10.8864 16.9136 10.8864 16.6864 11.2823 16.6864L15.2642 16.6568C15.2642 16.6568 15.632 16.8539 15.632 16.1702C15.632 16.1702 15.7779 13.0535 15.7907 9.62268C15.7961 8.60257 15.8403 7.53108 15.802 6.53814C15.802 6.53814 15.717 6.11033 15.6036 6.0224C15.6036 6.0224 15.6036 5.56496 16.0888 5.73835C16.0888 5.73835 16.5117 5.76552 16.3993 6.42205L16.4273 7.42339C16.4273 7.42339 16.3423 7.85169 17.1095 7.73757C17.1095 7.73757 17.8762 7.85168 17.9037 8.13771C17.9037 8.13771 18.1336 8.71076 17.2249 8.65246H16.5717ZM4.46187 17.1132C3.89408 17.087 3.95401 16.6577 3.95401 16.6577V15.5685C3.97955 14.9999 3.38376 14.8848 3.38376 14.8848C2.5581 15.0572 2.35918 14.5424 2.35918 14.5424C2.33118 13.9422 3.29731 13.9971 3.29731 13.9971C4.09399 13.9971 3.86609 13.2827 3.86609 13.2827L3.92257 8.96516C3.86608 8.53934 2.84151 8.53934 2.84151 8.53934C2.18923 8.65246 2.35918 8.02459 2.35918 8.02459C2.67254 7.70794 3.35527 7.73757 3.35527 7.73757C3.954 7.76622 3.95401 7.10871 3.95401 7.10871L3.97954 5.93595C4.63378 5.33673 4.74773 5.82283 4.74773 5.82283C4.37936 6.39636 4.46187 7.79537 4.46187 7.79537L4.43535 7.67928C4.46187 7.82304 4.40686 15.8836 4.40686 15.8836C4.46187 16.7709 5.06257 16.5703 5.06257 16.5703L8.75568 16.6296C9.09507 16.6296 9.12405 16.8549 9.12405 16.8549C9.12405 17.1414 8.89762 17.1132 8.89664 17.1132H4.46187ZM5.48498 16.2546C5.06061 16.3445 5.17309 15.9414 5.17309 15.9414C5.42751 15.4563 5.71288 15.5704 5.71288 15.5704C5.82732 15.5981 6.36663 15.7399 6.36663 15.7399C6.59453 15.7992 9.2105 15.769 9.2105 15.769C10.0366 16.228 9.2105 16.4275 9.2105 16.4275L8.41333 16.2546H5.48498ZM10.4306 16.0556C10.4306 16.0556 10.6865 15.769 10.8579 15.769C10.8579 15.769 13.6998 16.0279 14.1831 15.6851C14.1831 15.6851 14.6119 15.5991 14.7234 15.6851C14.7234 15.6851 15.1497 16.0279 15.1497 16.228C15.1497 16.228 15.1222 16.4878 14.6119 16.344C14.6119 16.344 11.3972 16.3717 11.2268 16.3717C11.2268 16.3717 10.3451 16.5713 10.4306 16.0556ZM5.3445 5.88062C5.3445 5.88062 5.40197 6.45119 5.40197 6.59396C5.40197 6.73673 5.31503 14.8551 5.31503 14.8551C5.31503 14.8551 5.40197 15.486 4.8607 15.7987C4.8607 15.7987 4.71924 15.857 4.68977 15.4568L4.74823 6.88147C4.74823 6.88147 4.80422 5.82282 5.3445 5.88062ZM14.7789 5.96411L14.7509 14.9979C14.7509 14.9979 14.9788 15.8007 15.3496 15.7147C15.3496 15.7147 15.4061 15.5423 15.4336 15.2548L15.549 6.64978C15.549 6.64978 15.2642 5.27745 14.7789 5.96411ZM10.2626 6.04118C10.2626 6.04118 10.1771 10.3568 10.2041 10.5015L10.1501 14.1324L10.0352 15.3867C10.0352 15.3867 10.2041 15.6475 10.3466 15.4746C10.3466 15.4746 11.2572 15.2474 11.8255 15.3318C11.8255 15.3318 13.6453 15.5042 14.0132 15.2177C14.0132 15.2177 14.2975 15.3595 14.383 14.9021C14.383 14.9021 14.4955 6.89975 14.4395 6.75649C14.4395 6.75649 14.5539 5.61436 14.4955 5.50123C14.4955 5.50123 14.467 5.24139 13.9866 5.46863C13.9866 5.46863 14.0416 5.69933 11.3432 5.61436C11.3432 5.61436 10.3191 5.58472 10.2626 6.04118ZM5.76888 5.62078L5.68636 14.7973C5.68636 14.7973 5.65738 15.2232 6.36761 15.3096C6.36761 15.3096 7.19327 15.3956 7.39072 15.3096C7.39072 15.3096 7.92904 15.2815 9.32298 15.3393C9.32298 15.3393 9.66434 15.6806 9.69185 15.2538C9.69185 15.2538 9.91975 7.82007 9.80629 6.2778C9.80629 6.2778 9.77878 5.62078 9.29351 5.59213C9.29351 5.59213 7.13531 5.76256 6.9359 5.59213L6.0847 5.36292C6.0847 5.36292 5.74137 5.38959 5.76888 5.62078Z" fill="white"/>
<path fill-rule="evenodd" clip-rule="evenodd" d="M11.2837 9.32821L11.2518 12.5091L11.1646 12.7486C11.1646 12.7486 10.8656 13.137 11.0739 13.1682C11.0739 13.1682 10.8073 13.3491 12.9821 13.3787C12.9821 13.3787 13.8199 13.5275 13.6096 12.4479C13.6096 12.4479 13.5204 12.0579 13.2203 12.6289C13.2203 12.6289 13.1311 13.1065 12.0597 12.9576C12.0597 12.9576 11.8205 12.7486 11.8205 12.5091V11.1878C11.8205 11.1878 11.7885 10.8564 12.2969 10.8906C12.2969 10.8906 12.863 11.249 12.9532 11.097C12.9532 11.097 13.1615 10.6189 12.9532 10.3176C12.9532 10.3176 12.6841 10.2896 12.6552 10.4094C12.6552 10.4094 12.4758 10.7677 11.9684 10.5572C11.9684 10.5572 11.7302 10.0781 11.8792 9.68758C11.8792 9.68758 11.8205 8.93722 12.3278 8.99841C12.3278 8.99841 12.9238 9.11716 12.9821 9.29917C12.9821 9.29917 13.1311 9.66061 13.2822 9.24006L13.1311 8.72772C13.1311 8.72772 13.0445 8.51718 12.8939 8.57734C12.8939 8.57734 11.8792 8.72772 11.7586 8.60586L10.9527 8.69713C10.9527 8.69713 10.8347 8.99841 11.194 9.1462C11.194 9.1462 11.2837 9.20791 11.2837 9.32821ZM9.55187 8.84751L9.2817 9.42C9.2817 9.42 8.62793 12.3286 8.27063 12.9275C8.27063 12.9275 8.21082 13.5296 7.70348 13.0484C7.70348 13.0484 6.53877 9.35881 6.47947 9.23798L6.09123 8.96782C6.09123 8.96782 5.85613 8.63801 6.27118 8.60897L7.37505 8.63801C7.37505 8.63801 7.73235 8.9367 7.25595 9.27066C7.25595 9.27066 7.31524 9.75032 7.94168 11.5782C7.94168 11.5782 8.11956 12.2685 8.32889 11.7582L8.92646 9.62742L8.74703 8.99737C8.74703 8.99737 8.56709 8.69764 8.83726 8.66809C8.83726 8.66809 9.4637 8.60897 9.55187 8.84751Z" fill="#9F9F9F"/>
<path fill-rule="evenodd" clip-rule="evenodd" d="M157.8 6.5625C156.237 6.5625 154.175 6.71813 153.446 6.71813C153.013 6.71813 151.371 6.6595 150.877 6.6595V7.06732C151.741 7.2307 152.211 7.54281 152.211 8.33862V19.8782C152.211 20.6969 151.729 21.0504 150.839 21.2082V21.6254C151.334 21.6254 152.853 21.5573 153.304 21.5573C154.026 21.5573 155.941 21.6832 157.509 21.6832C162.956 21.6832 166.291 18.4315 166.291 14.045C166.291 9.52887 163.092 6.56293 157.8 6.56293V6.5625ZM93.3118 6.6013C92.503 6.6013 90.4405 6.71813 89.7114 6.71813C89.2669 6.71813 87.7045 6.6595 87.2043 6.6595V7.06732C88.143 7.2251 88.5134 7.67387 88.5134 8.37742V19.8398C88.5134 20.6408 88.0316 21.0504 87.2043 21.2082V21.6254C87.6981 21.6254 89.2917 21.5573 89.6869 21.5573C90.1439 21.5573 91.7619 21.6254 92.2561 21.6254V21.2082C91.3667 21.0167 90.885 20.6076 90.885 19.8398V14.7055C91.1383 14.7314 91.3483 14.765 91.5768 14.8025C92.713 14.9879 93.3367 15.5103 93.8493 16.1708C94.6646 17.2071 96.1343 19.3079 96.9372 20.2955C97.8758 21.4353 98.827 21.8677 100.05 21.8677C100.606 21.8677 101.347 21.7871 101.804 21.6832V21.3633C100.853 21.3198 99.9388 20.3477 99.247 19.4902C98.5428 18.6397 96.7644 16.1453 96.1343 15.4043C95.6157 14.7977 95.1091 14.5016 95.1091 14.5016C97.3696 13.9459 98.8518 12.6065 98.8518 10.6096C98.8518 8.0847 96.863 6.6013 93.3118 6.6013ZM140.162 6.6013C139.346 6.6013 137.29 6.71813 136.561 6.71813C136.117 6.71813 134.56 6.6595 134.06 6.6595V7.06732C134.999 7.2251 135.376 7.67387 135.376 8.37742V19.8398C135.376 20.6408 134.887 21.0504 134.06 21.2082V21.6254C134.554 21.6254 136.135 21.5573 136.53 21.5573C136.994 21.5573 138.618 21.6254 139.118 21.6254V21.2082C138.222 21.0167 137.735 20.6076 137.735 19.8398V14.7055C137.988 14.7314 138.204 14.765 138.426 14.8025C139.563 14.9879 140.186 15.5103 140.699 16.1708C141.514 17.2071 142.922 19.3079 143.731 20.2955C144.664 21.4353 145.627 21.8677 146.838 21.8677C147.406 21.8677 148.147 21.7871 148.604 21.6832V21.3633C147.647 21.3198 146.751 20.3477 146.047 19.4902C145.349 18.6397 143.614 16.1453 142.984 15.4043C142.465 14.7977 141.959 14.5016 141.959 14.5016C144.219 13.9459 145.702 12.6065 145.702 10.6096C145.702 8.0847 143.713 6.6013 140.162 6.6013ZM76.409 6.61122C76.409 6.61122 76.1616 7.58204 75.964 8.05754L71.2213 19.5579C70.8754 20.3766 70.3568 20.9844 69.4176 21.2082V21.5862L71.5702 21.5573C71.8788 21.5573 73.1698 21.5862 73.6666 21.5862V21.2082C72.8329 20.9844 72.6109 20.6559 72.6109 20.2472C72.6109 19.98 72.7468 19.5696 72.8548 19.2863L73.8398 16.8308H79.3978L80.4603 19.2764C80.6082 19.6368 80.7381 19.9843 80.7381 20.2955C80.7381 20.6542 80.5096 21.028 79.781 21.2082L79.7685 21.5862C80.3245 21.5862 81.9301 21.5573 82.3193 21.5573C82.708 21.5573 84.3878 21.5862 84.9313 21.5862V21.2082C83.9373 20.9564 83.5417 20.383 83.1898 19.5868L78.1689 8.0666C77.9713 7.58635 77.7368 6.61122 77.7368 6.61122H76.409ZM123.487 6.61122C123.487 6.61122 123.246 7.58204 123.049 8.05754L118.293 19.5579C117.954 20.3766 117.441 20.9844 116.508 21.2082L116.502 21.5862L118.701 21.5573C119.003 21.5573 120.257 21.5862 120.745 21.5862V21.2082C119.918 20.9844 119.701 20.6559 119.701 20.2472C119.701 19.98 119.819 19.5696 119.936 19.2863L120.912 16.8308H126.482L127.544 19.2764C127.699 19.6368 127.816 19.9843 127.816 20.2955C127.816 20.6542 127.594 21.028 126.865 21.2082L126.853 21.5862C127.396 21.5862 129.014 21.5573 129.397 21.5573C129.78 21.5573 131.472 21.5862 132.016 21.5862V21.2082C131.015 20.9564 130.632 20.383 130.28 19.5868L125.259 8.0666C125.062 7.58635 124.815 6.61122 124.815 6.61122H123.487ZM51.267 6.6595V7.06732C51.9957 7.25872 52.453 7.58032 52.453 8.33862V19.9368C52.453 20.7322 51.9618 21.0504 51.267 21.2082V21.5862L53.5829 21.5573C54.0278 21.5573 55.6982 21.5862 56.0625 21.5862V21.2082C55.3338 21.0167 54.8461 20.7322 54.8461 19.9368V14.4533H63.446V19.9368C63.446 20.7322 62.9642 21.0504 62.2664 21.2082V21.5862C62.6308 21.5862 64.2643 21.5573 64.7087 21.5573L67.0649 21.5862V21.2082C66.3332 21.0167 65.839 20.7008 65.839 19.9368V8.33862C65.839 7.54799 66.3641 7.2307 67.0649 7.06732V6.6595L64.7087 6.71813C64.2643 6.71813 62.6308 6.6595 62.2664 6.6595V7.06732C62.9951 7.2307 63.446 7.54842 63.446 8.33862V13.1816H54.8461V8.33862C54.8461 7.54799 55.3677 7.2307 56.0625 7.06732V6.6595C55.6982 6.6595 54.0278 6.71813 53.5829 6.71813C53.2031 6.71813 51.6254 6.6595 51.267 6.6595ZM101.378 6.68881V7.10611C102.224 7.29752 102.724 7.82734 103.051 8.55244L108.906 21.6931H110.03L115.36 9.03743C115.86 7.85277 116.416 7.35184 117.317 7.10611V6.68881C116.798 6.68881 115.403 6.75649 115.069 6.75649C114.699 6.75649 113.531 6.68881 113.056 6.68881V7.10611C113.649 7.22596 114.081 7.54497 114.081 8.00883C114.081 8.42872 113.884 8.97837 113.593 9.68795L109.974 18.4616L106.139 9.697C105.732 8.78523 105.509 8.30499 105.509 7.95063C105.509 7.45918 106.065 7.19966 106.541 7.10611V6.68881C106.003 6.68881 104.422 6.75649 104.052 6.75649C103.656 6.75649 101.902 6.68881 101.378 6.68881ZM92.614 7.5523C95.0538 7.5523 96.4001 8.79041 96.4001 10.8135C96.4001 12.2327 95.5231 13.8416 92.7375 13.8416C92.0521 13.8416 91.3603 13.814 90.885 13.7545V7.7075C91.4563 7.61093 92.0345 7.55877 92.614 7.5523ZM139.476 7.5523C141.915 7.5523 143.249 8.79041 143.249 10.8135C143.249 12.2327 142.372 13.8416 139.587 13.8416C138.902 13.8416 138.21 13.814 137.735 13.7545V7.7075C138.31 7.6105 138.892 7.55877 139.476 7.5523ZM157.096 7.5523C161.252 7.5523 163.685 10.2829 163.685 14.1718C163.685 17.9185 161.37 20.6063 156.929 20.6063C156.151 20.6063 155.15 20.543 154.619 20.4511V7.7075C155.187 7.61007 156.25 7.5523 157.096 7.5523ZM76.52 10.0854L78.8791 15.6272H74.3091L76.52 10.0854ZM123.604 10.0854L125.957 15.6272H121.4L123.604 10.0854Z" fill="#9F9F9F"/>
<path fill-rule="evenodd" clip-rule="evenodd" d="M71.5372 29.433C71.5372 29.0985 71.3203 28.8506 70.8771 28.7541V28.5376L72.1698 28.5708C72.3687 28.5708 73.1604 28.5376 73.4064 28.5376V28.7541C72.9949 28.8351 72.7789 29.0791 72.7789 29.433V33.6815C72.7789 35.0265 73.5136 35.787 75.0502 35.787C76.3738 35.787 77.4042 35.189 77.4042 33.7815V29.4167C77.4042 29.1011 77.207 28.8506 76.7111 28.7541V28.5376C76.8916 28.5376 77.5671 28.5708 77.7981 28.5708L78.8859 28.5376V28.7541C78.4072 28.8692 78.1946 29.0843 78.1946 29.4167V33.5474C78.1946 35.4011 77.1222 36.4659 74.808 36.4659C72.6537 36.4659 71.5372 35.4813 71.5372 33.7393V29.433ZM80.7783 36.1331C81.2798 36.0392 81.4774 35.784 81.4774 35.471V29.599C81.4774 29.1011 81.2138 28.8769 80.7646 28.7536V28.5368C81.0188 28.5562 81.4457 28.5674 81.6635 28.5674C81.861 28.5674 82.1688 28.5639 82.3763 28.5368L87.44 34.5251V29.4167C87.44 29.1015 87.2416 28.8515 86.747 28.7536V28.5368C86.9287 28.5368 87.5802 28.5708 87.8117 28.5708L88.8952 28.5368V28.7536C88.4122 28.8679 88.179 29.0856 88.179 29.4167V36.4659H87.8738C87.6818 36.4215 87.3192 36.2138 86.7662 35.6038L82.2352 30.2961V35.471C82.2352 35.7852 82.4161 36.0348 82.9103 36.1331V36.3504C82.729 36.3504 82.0775 36.3155 81.8456 36.3155L80.7783 36.3504V36.1331ZM120.736 34.5493H120.95C121.064 34.9881 121.314 35.3882 121.663 35.6193C122.028 35.8775 122.599 36.0008 123.06 36.0008C124.079 36.0008 124.725 35.4934 124.725 34.6903C124.725 33.8587 123.897 33.4267 122.906 32.9288C122.169 32.5576 120.721 31.945 120.721 30.5366C120.721 29.2252 121.716 28.4092 123.306 28.4092C124.356 28.4092 124.849 28.6674 125.557 28.6342L125.544 30.2254H125.328C125.044 29.2878 124.197 28.961 123.27 28.961C122.233 28.961 121.845 29.5576 121.845 30.1637C121.845 31.0324 122.69 31.47 123.647 31.8998C124.725 32.3817 125.893 32.9913 125.893 34.348C125.893 35.6322 124.894 36.5625 123.068 36.5625C121.982 36.5625 121.33 36.2504 120.759 36.1797L120.736 34.5493ZM142.498 33.1181L140.436 29.7913C140.084 29.2071 139.815 28.8993 139.423 28.7532V28.5376C139.705 28.5376 140.468 28.5717 140.685 28.5717C140.881 28.5717 141.705 28.5376 142.002 28.5376V28.7532C141.738 28.8002 141.615 28.933 141.615 29.133C141.615 29.3093 141.734 29.5365 141.854 29.7335C141.972 29.9292 143.374 32.2692 143.374 32.2692L144.839 29.7348C144.987 29.4809 145.092 29.2287 145.092 29.0627C145.092 28.9114 144.985 28.7864 144.735 28.7532V28.5376C144.984 28.5376 145.504 28.5717 145.67 28.5717C145.837 28.5717 146.435 28.5376 146.681 28.5376V28.7385C146.118 28.9709 145.766 29.468 145.425 30.0439L143.551 33.1948M143.678 32.7973V35.455C143.678 35.7184 143.878 36.0495 144.329 36.1327V36.3504L143.019 36.3155C142.819 36.3155 142.032 36.3504 141.748 36.3504V36.1327C142.201 36.0495 142.418 35.7184 142.418 35.455V32.9141" fill="#9F9F9F"/>
<path fill-rule="evenodd" clip-rule="evenodd" d="M104.186 28.5374H109.021C109.171 28.5374 109.432 28.5202 109.582 28.4551H109.798L109.764 30.0351H109.55C109.366 29.538 109.175 29.1397 108.239 29.1397H106.14V31.8931H107.758C107.994 31.8931 108.28 31.8732 108.403 31.8435C108.767 31.7637 108.927 31.5603 109 31.2486H109.216C109.201 31.4866 109.201 32.0297 109.201 32.1905C109.201 32.3522 109.216 32.9238 109.216 33.1829H109C108.897 32.8717 108.755 32.6354 108.403 32.5488C108.28 32.5156 107.989 32.4884 107.758 32.4884H106.14V35.7182H108.423C109.42 35.7182 109.71 35.3005 109.958 34.7094L110.171 34.7594L109.958 36.3825C109.216 36.3161 108.771 36.3161 107.93 36.3161H105.517L104.184 36.3502V36.1338C104.619 36.0501 104.874 35.8337 104.874 35.4138V29.4406C104.874 29.0703 104.676 28.8392 104.186 28.7564V28.5374ZM91.8377 29.4832C91.8377 29.0823 91.5998 28.862 91.1343 28.7607V28.5465L92.4772 28.5792C92.6821 28.5792 93.5445 28.5465 93.8073 28.5465V28.7607C93.3439 28.862 93.1009 29.0616 93.1009 29.4832V35.4151C93.1009 35.8156 93.3396 36.0338 93.8073 36.1329V36.3502L92.4772 36.3161C92.2689 36.3161 91.3937 36.3502 91.1335 36.3502V36.1329C91.6097 36.0432 91.8377 35.8337 91.8377 35.4151V29.4832ZM128.514 29.4832C128.514 29.0823 128.274 28.862 127.809 28.7607V28.5465L129.151 28.5792C129.358 28.5792 130.22 28.5465 130.482 28.5465V28.7607C130.019 28.862 129.777 29.0616 129.777 29.4832V35.4151C129.777 35.8156 130.015 36.0338 130.482 36.1329V36.3502L129.151 36.3161C128.946 36.3161 128.069 36.3502 127.809 36.3502V36.1329C128.285 36.0432 128.514 35.8337 128.514 35.4151V29.4832ZM135.235 28.5706C132.585 28.5706 132.16 28.521 131.619 28.487L131.623 30.0967H131.839C132.037 29.3832 132.432 29.2173 132.943 29.2173H134.606V35.4151C134.606 35.8337 134.378 36.0432 133.901 36.1329V36.3502C134.162 36.3502 135.045 36.3161 135.249 36.3161L136.58 36.3502V36.1329C136.112 36.0338 135.874 35.8156 135.874 35.4151V29.2173H137.524C138.054 29.2173 138.434 29.3987 138.632 30.0967H138.845L138.849 28.487C138.31 28.521 137.886 28.5706 135.235 28.5706Z" fill="#9F9F9F"/>
<path fill-rule="evenodd" clip-rule="evenodd" d="M114.086 35.4154C114.086 35.8158 114.339 36.0331 114.806 36.1327V36.3504L113.458 36.3163C113.25 36.3163 112.422 36.3504 112.161 36.3504V36.1327C112.595 36.0495 112.851 35.834 112.851 35.4154V29.4227C112.851 29.0541 112.651 28.8222 112.163 28.7385V28.523L113.474 28.5557C113.854 28.5557 114.932 28.4919 115.356 28.4919C117.214 28.4919 118.248 29.2645 118.248 30.5888C118.248 31.6299 117.479 32.3343 116.293 32.6219C116.293 32.6219 116.563 32.7796 116.833 33.0952C117.161 33.4836 118.045 34.761 118.413 35.2071C118.779 35.655 119.248 36.1547 119.751 36.1775V36.3521C119.51 36.4052 119.124 36.4513 118.828 36.4513C118.197 36.4513 117.694 36.2271 117.205 35.6318C116.781 35.1136 116.063 34.0384 115.641 33.4953C115.37 33.1495 115.043 32.8792 114.443 32.7796C114.327 32.7598 114.217 32.7434 114.086 32.7279V35.4154ZM114.086 32.2304C114.333 32.2645 114.697 32.2804 115.056 32.2804C116.511 32.2804 116.969 31.4389 116.969 30.694C116.969 29.6408 116.269 28.9881 114.997 28.9881C114.733 28.9881 114.351 29.0209 114.086 29.0713V32.2304ZM95.6701 29.5085C95.5007 29.1313 95.2406 28.8549 94.7974 28.7571V28.5368C95.073 28.5368 96.028 28.5717 96.2376 28.5717C96.4309 28.5717 97.2654 28.5368 97.5487 28.5368V28.7506C97.2971 28.7993 97.0104 28.9394 97.0104 29.1981C97.0104 29.3835 97.1218 29.6356 97.3353 30.1103L99.3365 34.6902L101.231 30.1021C101.381 29.7318 101.489 29.4451 101.489 29.2261C101.489 28.9838 101.266 28.8157 100.952 28.7506V28.5368C101.203 28.5368 101.82 28.5717 102.012 28.5717C102.187 28.5717 102.912 28.5368 103.188 28.5368V28.7571C102.715 28.8855 102.428 29.1472 102.162 29.7667L99.3747 36.378H98.7437L95.6701 29.5085Z" fill="#9F9F9F"/>
</svg>
