<svg width="134" height="33" viewBox="0 0 134 33" fill="none" xmlns="http://www.w3.org/2000/svg">
<path fill-rule="evenodd" clip-rule="evenodd" d="M2.51275 10.5602C1.72534 9.85407 1.35912 8.70508 1.35912 7.04761V2.87942C1.35912 1.13896 1.20148 1.09068 0.379302 0.976009L0.0817992 0.926216C-0.0402738 0.811544 -0.0232966 0.53316 0.116562 0.466771C1.64907 0.532867 3.18403 0.532867 4.71653 0.466771C4.85639 0.53316 4.87337 0.811544 4.7513 0.926216L4.36567 0.976009C3.5435 1.09068 3.38666 1.13972 3.38666 2.87942V6.63796C3.38666 8.90274 4.12072 10.8061 6.55248 10.8061C8.84277 10.8061 9.78782 9.18112 9.78782 6.68624V4.63496C9.78782 3.40299 9.77004 1.87679 9.45556 1.40075C9.29791 1.1548 9.01739 1.03938 8.58083 0.975255L8.23078 0.925462C8.07314 0.81079 8.09092 0.515809 8.26555 0.466017C8.86055 0.499966 9.52508 0.51581 10.2066 0.51581C10.9406 0.51581 11.4136 0.499966 12.0603 0.466017C12.2002 0.548249 12.2349 0.81079 12.0951 0.925462L11.7103 1.0077C11.378 1.07258 11.0635 1.13896 10.9406 1.40075C10.6965 1.89263 10.6965 3.33811 10.6965 4.63496V6.58741C10.6965 8.08117 10.4515 9.4595 9.54206 10.3784C8.63257 11.2973 7.3213 11.6104 6.11512 11.6104C4.47158 11.6111 3.31714 11.2822 2.51275 10.5602ZM24.6007 1.4015C24.3557 1.91149 24.3557 3.33886 24.3557 4.63572V8.55797C24.3557 9.04985 24.3557 11.0687 24.4083 11.4459C24.2684 11.627 24.0235 11.6918 23.8141 11.676C23.5344 11.3312 23.0267 10.7745 21.768 9.42782L17.6757 5.04537C16.539 3.84734 15.9788 3.22419 15.6821 2.97674C15.6295 2.97674 15.6295 3.1578 15.6295 4.02765V7.22792C15.6295 8.45989 15.6473 9.97025 15.944 10.4621C16.1017 10.7081 16.3992 10.8069 16.8365 10.8718L17.2213 10.9216C17.3782 11.0362 17.3612 11.3471 17.1866 11.3976C16.5226 11.3646 15.8579 11.348 15.193 11.3478C14.4581 11.3478 13.986 11.3652 13.374 11.3976C13.2342 11.3154 13.1994 11.0362 13.3393 10.9216L13.7233 10.8393C14.0563 10.7911 14.3708 10.7247 14.4937 10.4621C14.7209 9.95365 14.7209 8.52628 14.7209 7.22792V3.33962C14.7209 2.05936 14.7387 1.79531 14.1445 1.31927C13.9521 1.17216 13.4621 1.04089 13.218 0.991849L12.9553 0.942056C12.8332 0.843226 12.851 0.516563 13.0248 0.466017C13.6893 0.532406 14.6513 0.51581 15.0887 0.51581C15.4557 0.51581 15.8761 0.499966 16.2957 0.466017C16.5932 1.17216 18.4995 3.24079 19.1115 3.86394L20.8601 5.63684C21.595 6.39126 23.2207 8.13171 23.3961 8.23054C23.4487 8.18226 23.4487 8.09927 23.4487 7.83749V4.63723C23.4487 3.40525 23.4309 1.89489 23.1164 1.40301C22.9596 1.15707 22.6791 1.05824 22.2417 0.993357L21.8391 0.943564C21.6815 0.828892 21.6992 0.518071 21.8739 0.467525C22.5554 0.501474 23.2029 0.517318 23.8844 0.517318C24.6363 0.517318 25.0914 0.501474 25.7204 0.467525C25.8602 0.549757 25.895 0.828892 25.7551 0.943564L25.3533 1.0258C25.0203 1.07257 24.7228 1.13896 24.6007 1.4015ZM31.6478 0.991849C30.8256 1.09068 30.6688 1.13896 30.6688 2.87942V8.98422C30.6688 10.7247 30.8256 10.7745 31.6478 10.8718L32.0326 10.9216C32.1555 11.0362 32.1377 11.3312 31.9978 11.3976C30.4362 11.3318 28.8722 11.3318 27.3106 11.3976C27.1707 11.3312 27.1529 11.0362 27.2758 10.9216L27.6606 10.8718C28.4828 10.7745 28.6396 10.7247 28.6396 8.98422V2.87942C28.6396 1.13896 28.4828 1.09068 27.6606 0.991849L27.2758 0.942056C27.1529 0.827384 27.1707 0.532406 27.3106 0.466017C28.0802 0.499966 28.8676 0.51581 29.672 0.51581C30.4416 0.51581 31.2282 0.499966 31.9978 0.466017C32.1377 0.532406 32.1555 0.827384 32.0326 0.942056L31.6478 0.991849ZM43.6271 1.69573C43.1372 2.4841 42.6303 3.58481 41.8429 5.24228L40.8639 7.27696C40.1638 8.77071 39.3424 10.6907 39.0449 11.5281C39.0102 11.5764 38.8703 11.6104 38.7482 11.6104C38.6317 11.6101 38.5173 11.5818 38.416 11.5281C38.2058 10.871 37.9261 10.0676 37.6116 9.37803L34.5509 2.4675C34.0618 1.36831 33.9041 1.13821 33.204 1.00694L32.7844 0.924708C32.6624 0.810036 32.6624 0.515055 32.8362 0.465263C33.5185 0.499212 34.2703 0.515056 34.9527 0.515056C35.7401 0.515056 36.3343 0.499212 37.2607 0.465263C37.4184 0.564093 37.4353 0.82663 37.2777 0.941302L36.8412 1.04013C36.4563 1.12237 36.3165 1.20535 36.3165 1.33662C36.3165 1.48373 36.4563 1.8451 37.1734 3.51917L38.4321 6.44105C38.7474 7.17963 39.2196 8.14756 39.3942 8.52629C40.3384 6.45766 41.3878 4.19287 42.315 1.96053C42.5948 1.30343 42.5422 1.17216 42.0175 1.05748L41.5098 0.94281C41.3878 0.81154 41.4056 0.549758 41.5446 0.466771C42.2625 0.50072 42.8567 0.516564 43.4161 0.516564C44.0459 0.516564 44.6231 0.50072 45.1122 0.466771C45.2521 0.549003 45.2351 0.81154 45.147 0.94281L44.7096 1.02504C44.3094 1.10652 43.9238 1.22119 43.6271 1.69573ZM45.7428 10.8552C46.565 10.7745 46.7226 10.7239 46.7226 8.98422V2.87942C46.7226 1.13896 46.565 1.09068 45.7428 0.976009L45.4631 0.942056C45.341 0.827384 45.358 0.532406 45.4978 0.466017C46.1624 0.499966 46.9837 0.51581 47.7534 0.51581H51.0938C52.2135 0.51581 53.2281 0.499966 53.4544 0.466017C53.5247 0.745908 53.6298 2.04276 53.7349 2.74815C53.6654 2.87942 53.3154 2.91186 53.1755 2.81303C52.895 1.86095 52.633 1.44978 52.0736 1.31927C51.6718 1.2061 51.1471 1.17216 50.675 1.17216H49.5028C48.751 1.17216 48.751 1.20611 48.751 2.14008V4.91486C48.751 5.34186 48.7679 5.35846 49.1705 5.35846H50.0105C51.532 5.35846 51.8295 5.34261 51.9515 4.63647L52.0736 4.0782C52.2135 3.96353 52.5457 3.96352 52.633 4.09404C52.6153 4.53764 52.5813 5.12836 52.5813 5.73567C52.5813 6.35882 52.6153 6.93369 52.633 7.45802C52.5457 7.5742 52.2135 7.5742 52.0736 7.47537L51.9515 6.81826C51.8295 6.12872 51.532 6.09628 50.0105 6.09628H49.1705C48.7679 6.09628 48.751 6.12872 48.751 6.53989V8.6236C48.751 9.46026 48.7857 10.0517 49.0476 10.3316C49.2578 10.5617 49.5553 10.693 51.0243 10.693C53.245 10.7254 53.6306 10.2494 54.2418 8.92009C54.3995 8.80541 54.6962 8.85371 54.8013 9.01892C54.697 9.70847 54.3122 10.9548 54.0664 11.3984C53.2976 11.3659 51.7931 11.3486 49.7478 11.3486H47.7534C46.9837 11.3486 45.9174 11.3659 45.13 11.3984C44.9909 11.332 44.9732 11.037 45.0952 10.9223L45.7428 10.8552ZM62.4967 3.55085C62.4967 5.10949 61.7093 5.89787 59.9954 5.89787C59.1555 5.89787 59.1555 5.86543 59.1555 5.3411V1.92733C59.1555 1.1714 59.1733 1.12312 60.0827 1.12312C61.605 1.12237 62.4967 2.254 62.4967 3.55085ZM55.7633 10.9216C55.6065 11.0362 55.6582 11.3312 55.7989 11.3976C57.3602 11.3318 58.924 11.3318 60.4853 11.3976C60.6252 11.3312 60.643 11.0362 60.5209 10.9216L60.1353 10.8718C59.3131 10.7745 59.1563 10.7247 59.1563 8.98422V6.88465C59.1563 6.53988 59.1741 6.52329 59.6979 6.52329C60.2751 6.52329 60.4676 6.58817 60.7828 7.08005C61.2024 7.72131 61.6923 8.62285 62.1645 9.31239C63.2308 10.8386 64.1403 11.4798 65.8194 11.4798C66.4305 11.4798 66.7628 11.4301 66.9738 11.381C67.0255 11.2988 67.0255 11.1185 66.939 11.0521C66.7297 11.0362 66.222 10.9374 65.7321 10.5436C64.9099 9.90235 64.0352 8.50742 62.6366 6.29243C62.5662 6.1936 62.5315 6.06233 62.6366 6.01254C63.4935 5.68361 64.7353 4.92919 64.7353 3.41883C64.7353 2.23741 64.0877 1.46638 63.196 1.02278C62.4272 0.629726 61.238 0.464509 59.8734 0.464509C58.4392 0.464509 56.9525 0.5143 55.8506 0.613129C55.7107 0.693853 55.7107 0.956394 55.8336 1.07107L56.288 1.12085C57.1101 1.20309 57.1271 1.39924 57.1271 2.97447V8.98195C57.1271 10.7224 56.9695 10.7722 56.1481 10.8695L55.7633 10.9216ZM74.877 8.41086C74.877 10.2818 73.3564 11.6111 70.8203 11.6111C69.2115 11.6111 68.3021 11.1192 67.9512 10.9216C67.6367 10.5768 67.4104 9.44366 67.4273 8.42519C67.5324 8.26148 67.8299 8.24564 67.9698 8.36031C68.2843 9.19697 69.2285 10.954 70.9416 10.954C72.2715 10.954 73.0241 10.1996 73.0241 9.19772C73.0241 8.26224 72.5504 7.50781 71.2399 6.81826L70.4881 6.42521C69.176 5.73567 68.0215 4.73379 68.0215 3.25738C68.0215 1.63235 69.3166 0.253271 71.8697 0.253271C72.7775 0.253271 73.4437 0.450931 74.265 0.598044C74.4575 0.959413 74.6313 2.04352 74.6313 2.81454C74.5448 2.96165 74.2303 2.97825 74.0726 2.86433C73.8107 2.00957 73.1979 0.91037 71.712 0.91037C70.3134 0.91037 69.7354 1.76363 69.7354 2.63423C69.7354 3.32227 70.2439 4.06236 71.3967 4.63647L72.4817 5.1774C73.6183 5.73492 74.877 6.75264 74.877 8.41086ZM80.9467 0.991849C80.1237 1.09068 79.9677 1.13896 79.9677 2.87942V8.98422C79.9677 10.7247 80.1237 10.7745 80.9467 10.8718L81.3307 10.9216C81.4536 11.0362 81.4366 11.3312 81.296 11.3976C79.7346 11.3318 78.1709 11.3318 76.6095 11.3976C76.4688 11.3312 76.4535 11.0362 76.5747 10.9216L76.9587 10.8718C77.7817 10.7745 77.9377 10.7247 77.9377 8.98422V2.87942C77.9377 1.13896 77.7817 1.09068 76.9587 0.991849L76.5747 0.942056C76.4535 0.827384 76.4688 0.532406 76.6095 0.466017C77.3783 0.499966 78.1665 0.51581 78.9717 0.51581C79.7389 0.51581 80.5272 0.499966 81.296 0.466017C81.4366 0.532406 81.4536 0.827384 81.3307 0.942056L80.9467 0.991849ZM86.3325 10.8386C87.1539 10.7737 87.3115 10.7239 87.3115 8.98346V1.89339C87.3115 1.20535 87.2945 1.1714 86.8394 1.1714H85.8604C84.2516 1.1714 83.7795 1.35246 83.1319 2.68176C83.0107 2.78059 82.6428 2.73155 82.5733 2.56708C82.87 1.68139 83.1319 0.663676 83.2556 0.0888051C83.2904 0.040522 83.3599 0.0239258 83.4464 0.0239258C83.5175 0.0239258 83.5871 0.0397676 83.6218 0.0888051C83.7099 0.499966 83.9549 0.51581 85.1441 0.51581H92.2793C93.1354 0.51581 93.399 0.466017 93.6076 0.0888051C93.6787 0.0563649 93.7482 0.0239258 93.8178 0.0239258C93.9237 0.0239258 94.0102 0.056362 94.0449 0.104645C93.8711 0.778346 93.7304 2.18987 93.783 2.7142C93.6965 2.84547 93.399 2.87942 93.2413 2.76399C93.0142 1.48373 92.6811 1.1714 90.8096 1.1714H89.8136C89.3593 1.1714 89.3415 1.20535 89.3415 1.89339V8.98346C89.3415 10.7239 89.4991 10.7737 90.3205 10.8544L90.9502 10.9208C91.0715 11.0355 91.0545 11.3305 90.9155 11.3969C90.0584 11.3664 89.2008 11.3498 88.3431 11.3471C87.5742 11.3471 86.7529 11.3644 85.6332 11.3969C85.4925 11.3305 85.4756 11.0023 85.5984 10.9208L86.3325 10.8386ZM97.7338 10.8552C98.5568 10.7745 98.7128 10.7239 98.7128 8.98422V8.01629C98.7128 7.09664 98.6433 6.8507 98.1542 5.98161L96.0555 2.0918C95.6699 1.38566 95.5316 1.18876 94.7434 1.04089L94.2891 0.942056C94.1848 0.827384 94.2196 0.516563 94.3602 0.466017C95.1121 0.499966 95.8461 0.51581 96.5632 0.51581C97.332 0.51581 98.3991 0.499966 98.8025 0.466017C98.9432 0.532406 98.9764 0.827384 98.8373 0.942056L98.3134 1.02429C98.0337 1.05673 97.9456 1.10652 97.9456 1.23779C97.9456 1.36906 98.0151 1.54861 98.2601 2.09105C98.961 3.50257 99.59 4.83187 100.289 6.02989C100.982 4.8262 101.664 3.61732 102.335 2.40338C102.632 1.8451 102.808 1.48374 102.808 1.30267C102.808 1.13896 102.651 1.09068 102.405 1.05673L101.881 0.942056C101.76 0.827384 101.76 0.549004 101.933 0.466017C102.703 0.499966 103.245 0.51581 103.769 0.51581C104.312 0.51581 104.871 0.499966 105.432 0.466017C105.588 0.548249 105.588 0.810786 105.466 0.942056L104.958 1.04089C104.171 1.17216 103.962 1.48449 103.052 2.92846C102.459 3.86394 101.933 4.76774 101.391 5.68512C100.866 6.53988 100.744 6.88466 100.744 7.99969V8.98422C100.744 10.7247 100.901 10.7745 101.759 10.8552L102.422 10.9216C102.545 11.0362 102.528 11.3312 102.387 11.3976C101.507 11.3677 100.627 11.3511 99.7468 11.3478C98.9432 11.3478 98.155 11.3652 97.2107 11.3976C97.0701 11.3312 97.0531 11.0362 97.176 10.9216L97.7338 10.8552ZM116.936 10.954C113.945 10.954 112.914 7.86842 112.914 5.60364C112.914 2.10689 114.819 0.908862 116.568 0.908862C119.35 0.908862 120.539 3.78096 120.539 6.25924C120.539 9.55833 118.93 10.954 116.936 10.954ZM116.761 11.6111C120.295 11.6111 122.917 9.19772 122.917 5.96501C122.917 2.97674 120.836 0.252517 116.797 0.252517C113.125 0.252517 110.537 2.73231 110.537 6.08044C110.536 9.00157 112.809 11.6111 116.761 11.6111ZM124.823 0.465263C125.435 0.499212 126.221 0.515056 126.993 0.515056H130.297C131.417 0.515056 132.396 0.499212 132.764 0.465263C132.764 0.826632 132.764 2.05785 132.799 2.82887C132.728 2.96014 132.413 2.99409 132.238 2.89526C132.065 1.94318 131.784 1.46714 131.119 1.30267C130.647 1.188 130.211 1.1714 129.651 1.1714H128.758C128.024 1.1714 128.024 1.20535 128.024 2.12349V5.06197C128.024 5.47313 128.041 5.50557 128.444 5.50557H129.475C130.997 5.50557 131.277 5.47313 131.435 4.78358L131.574 4.22531C131.68 4.11064 132.011 4.11064 132.099 4.24115C132.082 4.66816 132.048 5.27547 132.048 5.88278C132.048 6.49009 132.082 7.08081 132.099 7.5908C132.011 7.72207 131.679 7.72206 131.574 7.60664L131.435 6.96538C131.277 6.27583 130.997 6.24339 129.475 6.24339H128.444C128.042 6.24339 128.024 6.27584 128.024 6.687V8.98422C128.024 10.7247 128.182 10.7745 129.003 10.8393L129.737 10.9216C129.86 11.0362 129.843 11.3312 129.702 11.3976C128.811 11.3679 127.919 11.3513 127.027 11.3478C126.257 11.3478 125.47 11.3652 124.667 11.3976C124.526 11.3312 124.509 11.0362 124.63 10.9216L125.016 10.8718C125.839 10.7745 125.995 10.7247 125.995 8.98422V2.87942C125.995 1.13896 125.839 1.09068 125.016 0.976009L124.789 0.942056C124.667 0.826629 124.682 0.531652 124.823 0.465263ZM13.256 18.6499C13.5252 18.7133 13.6828 18.7336 13.8849 18.7766C13.9302 19.2617 13.9747 20.5065 14.2002 22.0682C14.0434 22.2364 13.6384 22.2583 13.4807 22.1112C13.0983 20.7804 12.0862 19.0286 9.11844 19.0286C6.26306 19.0286 3.38505 20.9283 3.38505 25.2541C3.38505 29.7497 6.37543 31.9436 9.27608 31.9436C12.1088 31.9436 13.3457 30.1707 13.9747 28.7992C14.1768 28.6106 14.5374 28.6943 14.6497 28.8844C14.4921 30.2974 13.8849 31.6916 13.5705 32.0922C13.3013 32.1337 13.0312 32.219 12.7831 32.2823C12.2883 32.4295 10.7369 32.7878 9.27608 32.7878C7.04967 32.7878 5.13934 32.3661 3.52006 31.3748C1.69866 30.2567 0.326753 28.3352 0.326753 25.571C0.326753 23.1033 1.49574 21.1817 3.1595 19.9792C4.82325 18.7978 7.09413 18.1859 9.36582 18.1859C10.6472 18.1859 12.1994 18.3964 13.256 18.6499ZM20.6087 23.2504C21.0129 22.2591 21.1932 21.731 21.2821 21.5839H21.3274C21.4397 21.731 21.5747 22.1323 21.9563 23.2504L22.9014 25.7815C23.0809 26.2884 22.9911 26.3314 22.3622 26.3314H20.0234C19.4841 26.3314 19.4162 26.3314 19.6636 25.7188L20.6087 23.2504ZM24.633 30.7207C24.9257 31.6267 24.8578 31.755 24.0485 31.8387L23.5538 31.9021C23.4188 32.0289 23.4406 32.4091 23.6209 32.5139C24.4075 32.4936 25.397 32.4506 26.3639 32.4506C27.5329 32.4506 28.3648 32.4709 29.2872 32.5139C29.4448 32.4091 29.4448 32.05 29.2645 31.9021L28.9274 31.8387C27.7811 31.6486 27.6679 31.5015 27.1513 30.087L23.9135 21.2444C23.5538 20.2953 23.2611 19.304 22.9022 18.3534C22.8584 18.298 22.8005 18.2536 22.7337 18.2243C22.667 18.1949 22.5935 18.1815 22.5198 18.1852C22.4745 18.1852 21.7332 19.0497 20.9458 19.1976C21.0129 19.5575 20.8108 20.0622 20.5189 20.7389L17.438 28.2507C16.9667 29.3899 16.6061 30.2771 16.3361 30.8248C15.999 31.5219 15.7516 31.712 15.0992 31.7957L14.425 31.9021C14.2681 32.0922 14.29 32.4091 14.4476 32.5139C15.1886 32.472 15.9308 32.4508 16.6732 32.4506C17.5948 32.4709 18.337 32.4709 19.0565 32.5139C19.2368 32.4302 19.2586 32.05 19.1018 31.9021L18.4502 31.7957C17.6183 31.6909 17.5285 31.626 17.978 30.3827L18.9005 27.8501C19.1026 27.2798 19.0807 27.2797 19.6644 27.2797H22.6548C23.2838 27.2797 23.3517 27.2798 23.5764 27.8501L24.633 30.7207ZM47.0945 30.1503C47.1624 31.5649 47.4098 31.712 48.1293 31.7965L48.7809 31.9029C49.0056 31.9866 48.983 32.4302 48.7364 32.5147C47.8225 32.4729 46.9076 32.4517 45.9926 32.4513C44.9879 32.4502 43.9832 32.4714 42.9796 32.5147C42.7993 32.431 42.7104 32.0296 42.9343 31.9029L43.5414 31.7965C44.4404 31.6697 44.5083 31.5015 44.5083 30.0666V23.3975V21.4345H44.463C43.8567 22.5955 43.5414 23.2292 43.1146 24.0719L41.1808 27.7867C40.416 29.2631 39.2923 31.6056 38.8873 32.5992C38.7976 32.6829 38.4596 32.6829 38.302 32.5992C37.9204 31.4585 36.9535 29.3899 36.4361 28.3352L34.4353 24.2847C33.9834 23.3418 33.5487 22.3918 33.1313 21.4352H33.0868C33.0415 22.4695 32.9971 24.1157 32.9518 25.0029C32.8951 26.6339 32.8652 28.2657 32.8621 29.8976C32.8621 31.2918 32.8839 31.6275 33.8524 31.7761L34.5937 31.9029C34.7505 32.0296 34.7505 32.4302 34.5719 32.5147C33.7856 32.4721 32.9981 32.451 32.2105 32.4513C31.491 32.4513 30.6809 32.4717 29.8046 32.5147C29.6025 32.4098 29.6025 32.0077 29.7375 31.9029L30.1199 31.8599C31.1991 31.7331 31.3794 31.4163 31.5136 30.13C31.6931 28.7992 31.7383 27.4276 31.8507 25.2338C31.9404 23.7988 32.0755 22.0463 32.0755 20.76C32.0755 19.7687 31.7383 19.3251 30.862 19.1984L30.0972 19.0716C29.9622 18.9245 29.9848 18.5232 30.187 18.4598C30.8612 18.5028 31.4683 18.5231 32.3002 18.5231C33.0876 18.5231 33.8742 18.5232 34.7061 18.4598C34.7958 19.7257 35.3803 20.8234 35.943 21.9626L38.4168 26.8384C38.5963 27.1968 39.1816 28.2515 39.4734 28.7381C39.8332 28.1255 40.1476 27.534 40.6424 26.5427L42.7564 22.4907C43.4759 21.098 44.1954 19.8532 44.577 18.4605C45.1842 18.5035 45.9263 18.5239 46.4211 18.5239C47.3653 18.5239 48.1527 18.5035 48.7817 18.4605C49.0291 18.5443 49.0743 18.9456 48.8496 19.0724L48.1074 19.1787C47.1187 19.3055 46.894 19.6638 46.894 20.7819C46.8924 23.9045 46.9377 27.0263 47.0945 30.1503ZM60.1806 28.8422C60.1806 30.7207 58.8095 31.6697 57.2573 31.6697C55.3017 31.6697 55.0769 30.8889 55.0769 28.9689V25.9308C55.0769 25.5076 55.1214 25.3809 56.1109 25.3809C58.6074 25.3809 60.1806 26.6687 60.1806 28.8422ZM50.7146 31.9021C50.557 32.0492 50.5796 32.4294 50.7599 32.5139C51.7709 32.4713 52.7828 32.4502 53.7948 32.4506C54.6493 32.4506 55.5935 32.5139 56.583 32.5139C59.1458 32.5139 60.63 32.1556 61.6875 31.3325C62.7215 30.5517 63.0586 29.4962 63.0586 28.5253C63.0586 26.1413 61.1474 25.107 59.4384 24.8535C59.3034 24.812 59.2581 24.7698 59.2581 24.7268C59.2581 24.6853 59.3034 24.6219 59.3931 24.6015C60.9672 24.1149 61.934 23.1666 61.934 21.9211C61.934 20.5903 61.3948 19.7476 60.36 19.1772C59.3487 18.6273 57.8418 18.4598 55.9533 18.4598C53.4803 18.4598 51.8384 18.5646 50.8262 18.6499C50.6467 18.7563 50.6467 19.092 50.8044 19.2406L51.3897 19.304C52.4463 19.4088 52.4689 19.6623 52.4689 21.688V29.4117C52.4689 31.6486 52.266 31.712 51.2094 31.8387L50.7146 31.9021L59.1239 21.8984C59.1239 23.7981 58.1571 24.5789 56.043 24.5789C55.144 24.5789 55.0761 24.5585 55.0761 24.0086V20.1897C55.0761 19.347 55.1432 19.304 56.2677 19.304C57.6623 19.304 59.1231 20.0426 59.1231 21.8984L50.7146 31.9021ZM73.4687 22.4265C73.4687 24.4318 72.4582 25.4442 70.2536 25.4442C69.1735 25.4442 69.1735 25.4027 69.1735 24.7268V20.3375C69.1735 19.3681 69.197 19.3047 70.366 19.3047C72.3224 19.304 73.4687 20.76 73.4687 22.4265ZM64.8121 31.9021C64.6099 32.0492 64.677 32.4294 64.8573 32.5139C65.8686 32.4718 66.8807 32.4507 67.893 32.4506C68.8817 32.4506 69.8939 32.4709 70.8834 32.5139C71.0637 32.4302 71.0855 32.05 70.9278 31.9021L70.4339 31.8387C69.3773 31.712 69.1735 31.6486 69.1735 29.4117V26.7109C69.1735 26.2673 69.197 26.2454 69.8712 26.2454C70.6134 26.2454 70.8599 26.3307 71.2658 26.9629C71.8058 27.7867 72.4339 28.9478 73.0419 29.8335C74.4138 31.7965 75.5828 32.6196 77.7405 32.6196C78.5287 32.6196 78.9548 32.5562 79.2248 32.4928C79.2927 32.3864 79.2927 32.1556 79.1787 32.0696C78.9103 32.0492 78.2579 31.9225 77.6281 31.4155C76.5715 30.5932 75.4478 28.7984 73.6474 25.9505C73.5577 25.8237 73.5132 25.6555 73.6474 25.5921C74.7493 25.1689 76.3459 24.1979 76.3459 22.2575C76.3459 20.7381 75.5141 19.7468 74.3677 19.1765C73.3774 18.6695 71.8494 18.459 70.0952 18.459C68.2527 18.459 66.3408 18.5224 64.9244 18.6491C64.7441 18.7555 64.7441 19.0912 64.9018 19.2399L65.4871 19.3032C66.5437 19.4081 66.5656 19.6616 66.5656 21.6872V29.411C66.5656 31.6479 66.3634 31.7112 65.3068 31.838L64.8121 31.9021ZM85.1829 19.1342C84.1263 19.261 83.9242 19.3244 83.9242 21.5612V29.4117C83.9242 31.6486 84.1263 31.712 85.1829 31.8387L85.6785 31.9021C85.8345 32.0492 85.8127 32.4294 85.6324 32.5139C83.625 32.4292 81.6145 32.4292 79.6072 32.5139C79.4269 32.4302 79.405 32.05 79.5611 31.9021L80.055 31.8387C81.1133 31.712 81.3154 31.6486 81.3154 29.4117V21.5612C81.3154 19.3244 81.1133 19.261 80.055 19.1342L79.5611 19.0709C79.405 18.9237 79.4269 18.5435 79.6072 18.459C80.5959 18.502 81.608 18.5224 82.642 18.5224C83.6323 18.5224 84.6445 18.502 85.6324 18.459C85.8127 18.5428 85.8345 18.923 85.6785 19.0709L85.1829 19.1342ZM93.8848 19.304C97.64 19.304 100.226 21.3288 100.226 25.5076C100.226 29.0753 98.4274 31.7331 94.4249 31.7331C92.0408 31.7331 91.884 30.6369 91.884 28.5887V21.1606C91.884 20.1693 91.9058 19.7257 92.0643 19.599C92.2227 19.4722 92.9406 19.304 93.8848 19.304ZM87.5217 31.9021C87.3641 32.0492 87.3875 32.4294 87.5678 32.5139C88.5187 32.4728 89.4704 32.4517 90.4223 32.4506C91.2542 32.4506 92.3108 32.5773 93.6827 32.5773C95.7289 32.5773 97.6635 32.3238 99.2593 31.5649C102.046 30.2341 103.284 27.8297 103.284 25.4865C103.284 22.342 101.373 20.1052 98.674 19.1772C97.0337 18.6273 95.5033 18.4598 93.3691 18.4598C91.1645 18.4598 89.3665 18.5231 87.7481 18.6499C87.5678 18.7563 87.5678 19.135 87.7246 19.2406L88.1967 19.2821C89.255 19.4088 89.2768 19.6623 89.2768 21.688V29.4117C89.2768 31.6486 89.0747 31.712 88.0165 31.8387L87.5217 31.9021ZM119.967 27.4495C119.135 27.5544 119.001 27.746 119.001 29.0323V30.2567C119.001 30.9953 119.114 31.543 119.54 31.7331C119.608 31.8184 119.607 31.9866 119.518 32.05C119.27 32.05 118.865 32.1133 118.438 32.2197C117.045 32.5147 115.357 32.7885 114.076 32.7885C111.378 32.7885 108.838 32.1133 107.151 30.4679C105.825 29.1801 105.173 27.4072 105.173 25.6351C105.173 23.863 105.825 22.0471 107.242 20.6755C108.838 19.0927 111.289 18.1867 114.413 18.1867C115.472 18.1867 116.618 18.3549 117.405 18.5035C117.922 18.6084 118.574 18.6921 118.844 18.6921C118.865 19.3259 119.024 20.4017 119.135 22.0471C119.023 22.2591 118.529 22.2802 118.415 22.0901C117.921 20.0433 116.324 19.0294 114.098 19.0294C110.141 19.0294 108.229 21.7098 108.229 25.2979C108.229 26.9863 108.635 28.8007 109.849 30.1518C111.063 31.503 112.862 31.9451 114.188 31.9451C115.268 31.9451 115.919 31.7769 116.189 31.46C116.324 31.2699 116.392 30.8897 116.392 30.1307V29.3703C116.392 27.872 116.369 27.7467 114.862 27.5136L114.054 27.3869C113.896 27.2398 113.896 26.8799 114.075 26.775C114.952 26.8165 116.032 26.8384 117.582 26.8384C118.497 26.8386 119.412 26.8174 120.325 26.775C120.551 26.8799 120.574 27.239 120.371 27.3869L119.967 27.4495ZM122.351 31.8184C123.407 31.712 123.609 31.6486 123.609 29.4125V21.562C123.609 19.3251 123.407 19.2617 122.351 19.1146L121.991 19.0716C121.835 18.9245 121.857 18.5443 122.037 18.4598C123.003 18.5039 123.97 18.525 124.937 18.5231H129.231C130.671 18.5231 131.976 18.5028 132.268 18.4598C132.357 18.8181 132.493 20.4862 132.627 21.3937C132.538 21.562 132.087 21.6042 131.907 21.4775C131.547 20.253 131.211 19.7257 130.491 19.5575C129.974 19.4088 129.298 19.3674 128.692 19.3674H127.186C126.218 19.3674 126.218 19.4088 126.218 20.6121V24.1783C126.218 24.7268 126.24 24.7487 126.758 24.7487H127.837C129.795 24.7487 130.177 24.7268 130.333 23.8207L130.491 23.1033C130.671 22.9546 131.099 22.9546 131.211 23.1236C131.189 23.694 131.143 24.4529 131.143 25.2338C131.143 26.035 131.189 26.775 131.211 27.4503C131.099 27.5974 130.671 27.5974 130.491 27.4706L130.333 26.6264C130.177 25.7407 129.795 25.6985 127.837 25.6985H126.758C126.24 25.6985 126.218 25.7415 126.218 26.2688V28.9493C126.218 30.0251 126.264 30.7856 126.6 31.1432C126.87 31.4396 127.253 31.6071 129.141 31.6071C131.998 31.6501 132.493 31.0383 133.28 29.3288C133.482 29.1801 133.864 29.2435 134 29.4555C133.864 30.3412 133.37 31.9444 133.054 32.5147C132.065 32.4717 130.132 32.4513 127.501 32.4513H124.938C123.948 32.4513 122.576 32.4717 121.566 32.5147C121.385 32.431 121.362 32.0507 121.519 31.9029L122.351 31.8184Z" fill="#9F9F9F"/>
</svg>
