<svg width="173" height="27" viewBox="0 0 173 27" fill="none" xmlns="http://www.w3.org/2000/svg">
<path fill-rule="evenodd" clip-rule="evenodd" d="M94.8668 12.3856C94.8668 12.3856 93.1837 11.2918 92.1429 10.8686C92.1429 10.8686 88.9213 9.29933 88.2821 8.55273C88.2821 8.55273 87.0265 7.30915 87.7617 5.86475C87.7617 5.86475 88.0694 4.91959 89.3963 4.91959C89.3963 4.91959 91.1237 5.01943 91.1237 6.5115V8.61627H97.3143L97.3036 5.51641C97.3036 5.51641 97.7797 0.439999 90.0117 0.216474C90.0117 0.216474 83.902 -0.205621 82.1498 3.25279C82.1498 3.25279 81.4621 4.02435 81.4621 6.7112V8.65258C81.4621 8.65258 81.3919 10.8924 82.4801 12.3357C82.4801 12.3357 83.0955 13.2819 84.6114 14.3258C84.6114 14.3258 87.6894 16.0675 89.5367 17.0649C89.5367 17.0649 91.4012 18.1836 91.1561 19.9639C91.1561 19.9639 91.0039 21.7918 89.203 21.7169C89.203 21.7169 87.5566 21.6398 87.5566 19.847V17.7434H80.96V20.799C80.96 20.799 80.7754 26.6424 89.2516 26.6424C89.2516 26.6424 97.3511 26.8149 97.7289 20.6458V18.1575C97.7278 18.1575 98.015 14.3769 94.8668 12.3856ZM63.173 0.943782L61.1001 14.5959H60.6154L58.6353 1.06633H48.2946L47.7763 25.7892H53.899L53.9724 7.16166H54.4539L57.6993 25.7858H64.1404L67.3458 7.16846H67.7723L67.9202 25.7892H74.0752L73.4123 0.943782H63.173ZM26.7267 1.04704L22.6532 25.7608H29.2444L31.6574 6.59887H32.1994L34.6113 25.7608H41.2014L37.129 1.04704H26.7267ZM165.03 12.0452V15.6908H166.721V19.6042C166.721 21.5172 165.165 21.5524 165.165 21.5524C163.274 21.5524 163.345 19.7347 163.345 19.7347V6.19833C163.345 4.80385 165.024 4.72897 165.024 4.72897C166.634 4.72897 166.645 6.39236 166.645 6.39236V8.45061H172.851C173.054 4.43282 172.292 3.46043 172.292 3.46043C170.752 -0.172709 164.929 0.0258537 164.929 0.0258537C155.98 0.0258537 156.973 7.24222 156.973 7.24222V20.3304C157.165 27.0986 165.983 26.411 166.132 26.4053C170.055 25.9492 171.239 24.6386 171.239 24.6386C172.33 23.7877 172.61 22.6088 172.61 22.6088C172.922 21.9223 173 19.7347 173 19.7347V12.0452H165.03ZM144.46 16.0675H144.19L137.892 0.950586H130.358V25.7914H136.49L136.123 10.6768H136.397L142.921 25.7914H150.227V0.948318H144.017L144.46 16.0675ZM115.389 19.6019C115.389 19.6019 115.477 21.6409 113.678 21.6409C113.678 21.6409 111.787 21.7476 111.787 19.653L111.767 0.965337H105.041V19.5044C105.041 19.5044 104.351 26.521 113.773 26.521C113.773 26.521 121.961 26.6231 121.961 19.8266V0.966471H115.389V19.6019ZM13.9039 12.3856C13.9039 12.3856 12.2229 11.2918 11.181 10.8697C11.181 10.8697 7.96155 9.3016 7.32241 8.55387C7.32241 8.55387 6.06679 7.30802 6.8031 5.86702C6.8031 5.86702 7.10972 4.92185 8.43551 4.92185C8.43551 4.92185 10.164 5.02057 10.164 6.51263V8.61741H16.3568L16.3449 5.51641C16.3449 5.51641 16.8178 0.439999 9.05306 0.217608C9.05306 0.217608 8.4679 0.177892 7.60959 0.223278C7.60959 0.223278 2.90562 0.488786 1.22355 3.2006C1.21383 3.22102 1.1998 3.23577 1.19008 3.25393C1.19008 3.25393 0.503433 4.02435 0.503433 6.71233V8.65371C0.503433 8.65371 0.432176 10.8935 1.52153 12.3368C1.52153 12.3368 2.13692 13.2831 3.65273 14.327C3.65273 14.327 6.72969 16.0686 8.57695 17.066C8.57695 17.066 10.4436 18.1825 10.1964 19.965C10.1964 19.965 10.0442 21.7929 8.24442 21.7181C8.24442 21.7181 6.59797 21.6409 6.59797 19.8482V17.7434H0.000321689V20.8013C0.000321689 20.8013 -0.184295 26.6447 8.29192 26.6447C8.29192 26.6447 16.3892 26.8172 16.7703 20.6481V18.1621C16.7703 18.1598 17.0532 14.3769 13.9039 12.3856Z" fill="#9F9F9F"/>
</svg>
