<svg width="157" height="26" viewBox="0 0 157 26" fill="none" xmlns="http://www.w3.org/2000/svg">
<path d="M11.5125 25.6535C8.12646 25.2733 5.41764 24.0695 3.38603 21.9153C2.46256 20.9649 1.90849 20.1412 1.29285 18.874C0.369385 16.9099 0 15.1991 0 12.7915C0 11.3342 0.123128 10.4472 0.369385 9.24332C1.41597 4.93485 4.67887 1.7035 9.17305 0.563025C10.5275 0.246226 11.5125 0.119507 13.0516 0.119507C19.1464 0.119507 23.7022 3.22414 25.3644 8.41964C26.2879 11.2708 26.2879 14.5655 25.426 17.2267C24.4409 20.3313 22.2862 22.8023 19.2696 24.2596C17.8536 24.9565 16.3145 25.4001 14.6523 25.5901C14.0982 25.7169 12.0666 25.7169 11.5125 25.6535ZM14.7138 24.4497C17.8536 23.9428 19.8852 21.9786 20.8702 18.3671C21.4859 16.0862 21.6706 12.9815 21.3012 10.3838C20.8702 7.5326 20.0699 5.56845 18.4692 3.85774C17.3611 2.6539 16.0067 1.83022 14.5291 1.45006C13.8519 1.25998 13.6672 1.25998 12.6822 1.25998C10.3428 1.25998 8.68054 1.95694 7.203 3.54094C5.29451 5.56845 4.18636 9.49676 4.49418 13.6785C4.74044 17.4801 5.60233 19.8244 7.57238 21.9153C9.604 24.0062 12.005 24.8932 14.7138 24.4497ZM88.6523 25.6535C88.5292 25.6535 88.2214 25.5901 87.852 25.5268C87.0516 25.4001 85.7588 25.1466 85.02 24.8298C81.5109 23.5626 78.8636 20.8382 77.6939 17.29C77.2629 15.8961 77.0167 14.5655 77.0167 12.8548C77.0167 11.2075 77.2014 9.87692 77.6323 8.54636C79.1099 3.98445 83.05 0.879824 88.2214 0.246226C89.0217 0.182867 91.0533 0.182867 91.9152 0.246226C96.4094 0.753105 99.9185 3.09742 101.704 6.77229C103.058 9.49676 103.428 12.8548 102.75 16.0228C102.443 17.5435 101.765 19.1274 100.904 20.3946C100.411 21.0916 99.1798 22.4222 98.5641 22.929C96.1016 24.8298 93.2696 25.7169 89.8836 25.7169C89.3911 25.6535 88.7754 25.6535 88.6523 25.6535ZM91.6074 24.513C95.4859 24.0695 97.7638 21.345 98.5026 16.1495C98.6872 14.9457 98.6872 11.7777 98.5026 10.5739C98.1947 8.483 97.5791 6.70893 96.7172 5.37837C94.6856 2.27374 91.9152 0.879825 88.6523 1.3867C86.9901 1.64014 85.8204 2.21038 84.7122 3.2875C83.05 4.87149 82.0649 7.40588 81.7571 10.6372C81.634 11.7144 81.6956 14.5022 81.8803 15.4526C82.1265 16.9732 82.4343 18.1137 82.9884 19.2542C83.4809 20.2679 83.9119 20.9649 84.7122 21.8519C86.6207 23.9428 88.837 24.8298 91.6074 24.513ZM27.5807 24.513C27.5807 24.0695 27.6423 24.0695 28.0117 24.0695C28.1348 24.0695 28.5042 24.0062 28.8736 23.9428C31.3361 23.4993 32.629 22.5489 34.5375 19.761C35.8303 17.8603 38.6623 13.7419 38.6623 13.6785C38.6623 13.6151 38.6007 13.4251 38.4776 13.235C38.3544 13.0449 37.431 11.4609 36.3844 9.7502C35.3378 8.03948 34.3528 6.32877 34.1065 6.01197C32.8137 4.17453 31.4593 2.9707 29.9202 2.27374C29.4892 2.08366 28.3811 1.83022 28.0732 1.83022C27.6423 1.83022 27.5807 1.76686 27.5807 1.3867V1.00654H35.2147L35.8303 2.0203C36.1997 2.59054 37.4925 4.68141 38.7238 6.64557C39.9551 8.67308 41.0017 10.2571 41.0633 10.2571C41.1864 10.2571 42.2945 8.483 43.1564 7.08909C44.5108 4.80813 44.9418 3.47758 44.5724 2.84398C44.3262 2.3371 43.5258 1.95694 42.6639 1.89358L42.233 1.83022V1.0699H51.9601V1.83022H51.7138C50.7288 1.89358 49.3744 2.27374 48.5125 2.78062C47.8969 3.09742 46.7887 3.98445 46.4193 4.42797C45.7421 5.25165 45.1881 6.01197 43.8952 8.10284C41.8636 11.2708 41.802 11.3342 41.8636 11.3976C41.9252 11.5243 47.0965 19.761 47.4659 20.3313C48.8819 22.4222 50.2363 23.4993 51.8985 23.9428C52.3911 24.0695 52.5757 24.0695 53.8686 24.0695C55.4693 24.0695 56.3927 24.0062 57.3162 23.7527C58.9168 23.3092 59.9019 22.4855 60.3328 21.0282L60.5175 20.458V12.8548C60.5175 7.5326 60.5175 5.06157 60.4559 4.61805C60.2097 2.84398 59.5941 2.21038 57.6856 1.83022C57.3162 1.76686 56.8852 1.7035 56.7621 1.64014C56.5158 1.57678 56.5159 1.57678 56.5159 1.25998V0.943184H74.3694L74.4926 3.41422C74.5541 4.74477 74.6157 5.88525 74.6157 5.94861C74.6157 6.01197 74.4926 6.01197 74.3079 6.01197H74.0001L73.8769 5.50509C73.446 3.54094 72.1531 2.52718 69.7521 2.14702C69.1981 2.08366 68.213 2.0203 66.6124 2.0203L64.2114 1.95694V11.7144L66.7971 11.651C69.0749 11.5876 70.4293 11.5243 70.7987 11.3976C70.9218 11.3342 70.9218 11.5243 70.9218 14.1854V17.0366H70.6756C70.3678 17.0366 70.3062 16.9732 70.3062 16.5297C70.3062 15.706 69.9368 14.5655 69.5674 14.122C68.8902 13.4251 67.9668 13.1716 65.6273 13.2983L64.2729 13.3617V17.4167C64.2729 21.7252 64.3345 21.9786 64.6423 22.6756C64.827 23.0558 65.3195 23.4993 65.7505 23.6894C66.0583 23.8161 67.4127 24.1329 68.3977 24.2596C68.644 24.323 68.644 24.323 68.644 24.6397V24.9565H45.7421L42.6024 19.8878C40.8786 17.0999 39.401 14.819 39.401 14.819C39.3395 14.819 38.9085 15.3259 37.8619 16.8465C36.3844 18.9374 35.2147 21.0916 35.03 21.9153C34.8453 22.929 35.4609 23.626 37.1232 24.1962L37.6157 24.3863V25.0199H27.5192V24.513H27.5807ZM108.722 21.6618C108.722 19.8878 108.784 16.3396 108.845 13.6785C108.907 8.22956 108.907 4.23789 108.784 3.66766C108.538 2.78062 108.168 2.21038 107.552 2.0203C107.368 1.95694 106.937 1.89358 106.567 1.89358L105.89 1.83022L105.952 1.51342C105.952 1.32334 106.013 1.19662 106.013 1.19662C106.075 1.13326 110.569 1.00654 112.785 1.00654C115.494 0.943184 116.726 1.00654 118.142 1.25998C121.343 1.76686 123.313 3.03406 123.99 5.06157C124.236 5.82189 124.298 7.08909 124.113 7.91276C123.559 10.1304 121.712 11.9678 119.003 12.8548L118.449 13.0449L118.634 13.2983C118.757 13.4251 119.311 14.122 119.927 14.819C124.975 20.7114 128.238 23.5626 130.639 24.0062C131.132 24.0695 131.87 24.0695 132.671 23.8794C134.087 23.5626 135.01 22.739 135.318 21.2817C135.564 20.3946 135.564 19.6343 135.564 12.2846C135.564 5.63181 135.503 4.99821 135.441 4.49133C135.195 3.41422 134.702 2.78062 133.902 2.3371C133.409 2.08366 132.301 1.76686 131.747 1.7035L131.378 1.64014V1.00654L132.794 0.943184C136.057 0.816465 141.905 0.816465 143.137 0.879824C148.431 1.25998 152.002 2.52718 154.341 4.99821C156.25 7.02572 157.112 9.68684 156.988 13.0449C156.927 14.3121 156.865 14.9457 156.496 16.0228C155.203 20.0145 151.325 23.3092 146.769 24.323C145.414 24.6398 145.168 24.6397 136.549 24.6397C128.915 24.6397 128.176 24.6397 127.499 24.513C125.837 24.2596 124.421 23.4993 122.143 21.9153C120.481 20.7114 119.127 19.3809 117.526 17.4167C116.787 16.5297 114.201 12.9815 114.14 12.7915C114.078 12.7281 114.14 12.6647 114.386 12.6647C114.817 12.6647 115.802 12.3479 116.479 11.9678C117.895 11.2075 119.127 9.94028 119.681 8.7998C119.988 8.10284 120.112 7.40588 120.05 6.70893C119.865 5.31501 119.25 4.17453 118.203 3.35086C117.033 2.40046 115.433 1.89358 113.647 1.83022L112.847 1.76686L112.785 4.04781C112.662 9.17996 112.662 20.3313 112.724 20.9649C112.97 22.8657 113.586 23.3726 116.11 23.7527C117.341 23.9428 117.218 23.8794 117.218 24.323V24.7031H108.845L108.722 21.6618ZM144.799 23.626C148.554 22.9924 151.201 20.2679 152.063 16.0228C152.31 14.8823 152.371 12.6014 152.186 11.3976C151.94 9.56012 151.448 8.1662 150.586 6.83565C148.924 4.30125 146.338 2.71726 142.89 2.21038C141.967 2.08366 139.997 2.0203 139.443 2.14702L139.073 2.21038V11.7144C139.073 20.2679 139.135 21.2817 139.196 21.5985C139.504 22.6756 140.058 23.1825 140.982 23.4359C141.905 23.8161 143.567 23.8161 144.799 23.626Z" fill="#9F9F9F"/>
</svg>
